<svg xmlns="http://www.w3.org/2000/svg" width="67" height="67" viewBox="0 0 67 67">
  <g id="bag" transform="translate(-657.166 -669.166)">
    <circle id="Ellipse_73" data-name="Ellipse 73" cx="33.5" cy="33.5" r="33.5" transform="translate(657.166 669.166)" fill="#007ba7"/>
    <g id="Group_380" data-name="Group 380" transform="translate(673.98 686.616)">
      <path id="Path_3117" data-name="Path 3117" d="M645.345,282.54v-7.428a.4.4,0,0,0,.044-.084,2.9,2.9,0,0,1,3.066-2.386h6.172c0-.145,0-.248,0-.352,0-.847-.01-1.693,0-2.539A1.712,1.712,0,0,1,656.351,268q5.253-.009,10.506,0a1.654,1.654,0,0,1,1.666,1.448,16.654,16.654,0,0,1,.042,1.742c.005.473,0,.945,0,1.447h.379q2.952,0,5.9,0a2.893,2.893,0,0,1,3,3q0,3.254,0,6.507v.365H645.786C645.639,282.516,645.492,282.531,645.345,282.54Zm11.638-12.2v2.277h9.233V270.34Z" transform="translate(-645.345 -268)" fill="#fff"/>
      <path id="Path_3118" data-name="Path 3118" d="M645.345,316.252V307.11h12.189c0,.983,0,1.923,0,2.863a1.156,1.156,0,0,0,1.171,1.2q2.887.009,5.775,0a1.156,1.156,0,0,0,1.177-1.192c.006-.846,0-1.692,0-2.538,0-.1.009-.2.014-.309h12.174v.3q0,4.172,0,8.345a2.886,2.886,0,0,1-2.93,2.941q-13.327.006-26.654,0a2.867,2.867,0,0,1-2.23-1.029A3.415,3.415,0,0,1,645.345,316.252Z" transform="translate(-645.345 -290.856)" fill="#fff"/>
      <path id="Path_3119" data-name="Path 3119" d="M683.525,309.457h-4.6v-2.291h4.6Z" transform="translate(-664.972 -290.889)" fill="#fff"/>
    </g>
  </g>
</svg>
