<svg id="google" xmlns="http://www.w3.org/2000/svg" width="24" height="24" viewBox="0 0 24 24">
  <path id="Path_2804" data-name="Path 2804" d="M5.345,146.329l-.839,3.134-3.068.065a12.079,12.079,0,0,1-.089-11.26h0l2.731.5,1.2,2.715a7.2,7.2,0,0,0,.068,4.845Z" transform="translate(0 -131.814)" fill="#fbbb00"/>
  <path id="Path_2805" data-name="Path 2805" d="M273.21,208.176a12.053,12.053,0,0,1-4.3,11.656h0l-3.44-.176-.487-3.04a7.186,7.186,0,0,0,3.092-3.67h-6.448v-4.77H273.21Z" transform="translate(-249.421 -198.486)" fill="#518ef8"/>
  <path id="Path_2806" data-name="Path 2806" d="M48.678,316.3h0a12.062,12.062,0,0,1-18.17-3.689l3.908-3.2a7.171,7.171,0,0,0,10.334,3.672Z" transform="translate(-29.072 -294.951)" fill="#28b446"/>
  <path id="Path_2807" data-name="Path 2807" d="M47.03,2.776l-3.906,3.2A7.17,7.17,0,0,0,32.553,9.728L28.625,6.513h0A12.06,12.06,0,0,1,47.03,2.776Z" transform="translate(-27.276)" fill="#f14336"/>
</svg>
