<svg xmlns="http://www.w3.org/2000/svg" xmlns:xlink="http://www.w3.org/1999/xlink" width="43" height="43" viewBox="0 0 43 43">
  <defs>
    <clipPath id="clip-path">
      <rect id="Rectangle_172" data-name="Rectangle 172" width="43" height="43" fill="#333"/>
    </clipPath>
  </defs>
  <g id="Group_257" data-name="Group 257" clip-path="url(#clip-path)">
    <path id="Path_2734" data-name="Path 2734" d="M819.7,965.019a9.854,9.854,0,0,0-2.284-12.47v-5.841h.9a.9.9,0,0,0,.9-.9v-2.687h.9a.9.9,0,0,0,.511-1.631l-20.6-14.333a.9.9,0,0,0-1.022,0l-20.6,14.333a.9.9,0,0,0,.511,1.631h.9v2.687a.9.9,0,0,0,.9.9h.9v14.333h-.9a.9.9,0,0,0-.9.9v2.849A2.688,2.688,0,0,0,778,967.312V969.1a.9.9,0,0,0,.9.9H820.1a.9.9,0,0,0,.9-.9v-1.792A2.687,2.687,0,0,0,819.7,965.019Zm-2.284-20.1H810.25v-1.791h7.167Zm-1.792,1.792v4.667a9.778,9.778,0,0,0-3.583-1.039v-3.628ZM799.5,928.988l17.746,12.345H781.754Zm-9.854,32.053h-.9V946.708h.9a.9.9,0,0,0,.9-.9v-2.687h3.583v2.687a.9.9,0,0,0,.9.9h.9v14.333h-.9a.9.9,0,0,0-.9.9v2.688h-3.583v-2.688A.9.9,0,0,0,789.646,961.041Zm6.271,1.792h5.76a9.726,9.726,0,0,0,.708,1.792h-6.468v-1.792Zm1.791-1.792V946.708h3.584v14.333Zm4.48-16.125h-6.271v-1.791h7.166v1.791Zm.9,1.792h.9a.9.9,0,0,0,.9-.9v-2.687h3.583v2.687a.9.9,0,0,0,.9.9h.9v3.628a9.851,9.851,0,0,0-7.167,4.157Zm-21.5-3.583h7.167v1.791h-7.167Zm5.375,3.583v14.333h-3.583V946.708Zm-5.375,16.125h7.167v1.792h-7.167Zm-1.791,5.375v-.9a.9.9,0,0,1,.9-.9h22.861a9.934,9.934,0,0,0,1.944,1.792Zm39.416,0H816.79a9.957,9.957,0,0,0,1.881-1.711.9.9,0,0,1,.537.815Zm-8.062,0a8.063,8.063,0,1,1,8.062-8.063A8.063,8.063,0,0,1,811.146,968.208Z" transform="translate(-778 -927)" fill="#333"/>
    <path id="Path_2735" data-name="Path 2735" d="M809.927,937.92l-9.854-7.167-1.1,1.451,7.624,5.545H790.542v1.792h18.812a.9.9,0,0,0,.573-1.621Z" transform="translate(-778 -927)" fill="#333"/>
    <path id="Path_2736" data-name="Path 2736" d="M812.938,955.666h-.9v-1.792H810.25v1.792h-.9a1.792,1.792,0,0,0-1.792,1.792v1.791a1.792,1.792,0,0,0,1.792,1.792h3.584v1.792h-3.584v-.9h-1.792v.9a1.792,1.792,0,0,0,1.792,1.791h.9v1.792h1.792v-1.792h.9a1.791,1.791,0,0,0,1.791-1.791v-1.792a1.791,1.791,0,0,0-1.791-1.792h-3.584v-1.791h3.584v.9h1.791v-.9A1.791,1.791,0,0,0,812.938,955.666Z" transform="translate(-778 -927)" fill="#333"/>
  </g>
</svg>
