<svg xmlns="http://www.w3.org/2000/svg" xmlns:xlink="http://www.w3.org/1999/xlink" width="37" height="37" viewBox="0 0 37 37">
  <defs>
    <clipPath id="clip-path">
      <rect id="Rectangle_98" data-name="Rectangle 98" width="37" height="37" transform="translate(307 931)" fill="#fff"/>
    </clipPath>
  </defs>
  <g id="Group_127" data-name="Group 127" transform="translate(-307 -931)" clip-path="url(#clip-path)">
    <path id="Path_280" data-name="Path 280" d="M341.973,949.7a.543.543,0,0,0-.543.543v14.676a1,1,0,0,1-1,1H327.641a1,1,0,0,1-1-1V963.47a.543.543,0,0,0-1.086,0v1.444a2.073,2.073,0,0,0,.256,1H309.267a.181.181,0,0,1-.181-.181v-13.1a.543.543,0,0,0-1.086,0v13.1A1.268,1.268,0,0,0,309.267,967H340.43a2.089,2.089,0,0,0,2.086-2.086V950.238A.543.543,0,0,0,341.973,949.7Z" fill="#fff"/>
    <path id="Path_281" data-name="Path 281" d="M340.431,941.662h-5.25v-4.39a.544.544,0,0,0-.159-.384l-6.729-6.729a.547.547,0,0,0-.384-.159H309.268A1.268,1.268,0,0,0,308,931.267v19.192a.543.543,0,1,0,1.086,0V931.267a.181.181,0,0,1,.181-.181h18.1v4.738a1.993,1.993,0,0,0,1.991,1.991H334.1v3.847h-6.453a2.089,2.089,0,0,0-2.086,2.087v.085H316.95a.543.543,0,1,0,0,1.086h8.606v3.689H316.95a.543.543,0,1,0,0,1.086h8.606v3.688H316.95a.543.543,0,0,0,0,1.087h8.606v3.688H316.95a.543.543,0,0,0,0,1.087h8.606V961.3a.543.543,0,1,0,1.086,0V943.749a1,1,0,0,1,1-1h12.789a1,1,0,0,1,1,1v4.317a.544.544,0,0,0,1.087,0v-4.317A2.09,2.09,0,0,0,340.431,941.662Zm-11.979-5.838v-3.97l4.875,4.875h-3.97A.906.906,0,0,1,328.452,935.824Z" fill="#fff"/>
    <path id="Path_282" data-name="Path 282" d="M339.858,945.433a1.269,1.269,0,0,0-1.267-1.267h-9.016a1.269,1.269,0,0,0-1.268,1.267V948.5a1.27,1.27,0,0,0,1.268,1.268h9.016a1.269,1.269,0,0,0,1.267-1.268Zm-1.086,3.066a.181.181,0,0,1-.181.181h-9.016a.181.181,0,0,1-.181-.181v-3.066a.181.181,0,0,1,.181-.181h9.016a.181.181,0,0,1,.181.181Z" fill="#fff"/>
    <path id="Path_283" data-name="Path 283" d="M328.307,954.226a1.214,1.214,0,0,0,1.213,1.213h1.034a1.214,1.214,0,0,0,1.212-1.213v-1.034a1.214,1.214,0,0,0-1.212-1.212H329.52a1.214,1.214,0,0,0-1.213,1.212Zm1.087-1.034a.126.126,0,0,1,.126-.126h1.034a.126.126,0,0,1,.126.126v1.034a.126.126,0,0,1-.126.127H329.52a.126.126,0,0,1-.126-.127Z" fill="#fff"/>
    <path id="Path_284" data-name="Path 284" d="M335.812,953.192a1.214,1.214,0,0,0-1.212-1.212h-1.034a1.214,1.214,0,0,0-1.213,1.212v1.034a1.214,1.214,0,0,0,1.213,1.213H334.6a1.214,1.214,0,0,0,1.212-1.213Zm-1.086,1.034a.126.126,0,0,1-.126.127h-1.034a.126.126,0,0,1-.126-.127v-1.034a.126.126,0,0,1,.126-.126H334.6a.126.126,0,0,1,.126.126v1.034Z" fill="#fff"/>
    <path id="Path_285" data-name="Path 285" d="M339.858,953.192a1.214,1.214,0,0,0-1.212-1.212h-1.034a1.214,1.214,0,0,0-1.213,1.212v1.034a1.214,1.214,0,0,0,1.213,1.213h1.034a1.214,1.214,0,0,0,1.212-1.213Zm-1.086,1.034a.126.126,0,0,1-.126.127h-1.034a.127.127,0,0,1-.127-.127v-1.034a.127.127,0,0,1,.127-.126h1.034a.126.126,0,0,1,.126.126Z" fill="#fff"/>
    <path id="Path_286" data-name="Path 286" d="M328.307,958.654a1.214,1.214,0,0,0,1.213,1.213h1.034a1.214,1.214,0,0,0,1.212-1.213V957.62a1.214,1.214,0,0,0-1.212-1.212H329.52a1.214,1.214,0,0,0-1.213,1.212Zm1.087-1.034a.125.125,0,0,1,.126-.126h1.034a.125.125,0,0,1,.126.126v1.034a.126.126,0,0,1-.126.127H329.52a.126.126,0,0,1-.126-.127Z" fill="#fff"/>
    <path id="Path_287" data-name="Path 287" d="M335.812,957.62a1.214,1.214,0,0,0-1.212-1.212h-1.034a1.214,1.214,0,0,0-1.213,1.212v1.034a1.214,1.214,0,0,0,1.213,1.213H334.6a1.214,1.214,0,0,0,1.212-1.213Zm-1.086,1.034a.126.126,0,0,1-.126.127h-1.034a.126.126,0,0,1-.126-.127V957.62a.125.125,0,0,1,.126-.126H334.6a.125.125,0,0,1,.126.126v1.034Z" fill="#fff"/>
    <path id="Path_288" data-name="Path 288" d="M328.307,963.082a1.214,1.214,0,0,0,1.213,1.212h1.034a1.214,1.214,0,0,0,1.212-1.212v-1.034a1.214,1.214,0,0,0-1.212-1.213H329.52a1.214,1.214,0,0,0-1.213,1.213Zm1.087-1.034a.126.126,0,0,1,.126-.127h1.034a.126.126,0,0,1,.126.127v1.034a.126.126,0,0,1-.126.126H329.52a.125.125,0,0,1-.126-.126Z" fill="#fff"/>
    <path id="Path_289" data-name="Path 289" d="M334.6,960.835h-1.034a1.214,1.214,0,0,0-1.213,1.213v1.034a1.214,1.214,0,0,0,1.213,1.212H334.6a1.214,1.214,0,0,0,1.212-1.212v-1.034A1.214,1.214,0,0,0,334.6,960.835Zm.126,2.247a.126.126,0,0,1-.126.126h-1.034a.126.126,0,0,1-.126-.126v-1.034a.126.126,0,0,1,.126-.127H334.6a.126.126,0,0,1,.126.127v1.034Z" fill="#fff"/>
    <path id="Path_290" data-name="Path 290" d="M338.543,956.408h-.829a1.317,1.317,0,0,0-1.315,1.315v5.256a1.316,1.316,0,0,0,1.315,1.315h.829a1.316,1.316,0,0,0,1.315-1.315v-5.256A1.317,1.317,0,0,0,338.543,956.408Zm.229,6.571a.228.228,0,0,1-.229.229h-.829a.229.229,0,0,1-.229-.229v-5.256a.229.229,0,0,1,.229-.229h.829a.228.228,0,0,1,.229.229Z" fill="#fff"/>
    <path id="Path_291" data-name="Path 291" d="M312.338,940.145h2.167a.543.543,0,1,0,0-1.086h-2.167a.543.543,0,1,0,0,1.086Z" fill="#fff"/>
    <path id="Path_292" data-name="Path 292" d="M316.949,940.145H327.4a.543.543,0,1,0,0-1.086H316.949a.543.543,0,1,0,0,1.086Z" fill="#fff"/>
    <path id="Path_293" data-name="Path 293" d="M312.338,944.92h2.167a.543.543,0,1,0,0-1.086h-2.167a.543.543,0,1,0,0,1.086Z" fill="#fff"/>
    <path id="Path_294" data-name="Path 294" d="M312.338,949.7h2.167a.543.543,0,1,0,0-1.086h-2.167a.543.543,0,1,0,0,1.086Z" fill="#fff"/>
    <path id="Path_295" data-name="Path 295" d="M312.338,954.47h2.167a.543.543,0,1,0,0-1.087h-2.167a.543.543,0,0,0,0,1.087Z" fill="#fff"/>
    <path id="Path_296" data-name="Path 296" d="M312.338,959.244h2.167a.543.543,0,1,0,0-1.086h-2.167a.543.543,0,1,0,0,1.086Z" fill="#fff"/>
  </g>
</svg>
