<svg xmlns="http://www.w3.org/2000/svg" width="29.861" height="29.861" viewBox="0 0 29.861 29.861">
  <g id="plus-circle-black" transform="translate(0 -0.001)">
    <circle id="Oval" cx="14.93" cy="14.93" r="14.93" transform="translate(0 0.001)" fill="#333"/>
    <g id="Group_372" data-name="Group 372" transform="translate(7.687 7.687)">
      <path id="Path_3116" data-name="Path 3116" d="M616.555,181.417c-.228-.01-.4-.024-.571-.024-1.235,0-2.47,0-3.7,0a1.441,1.441,0,1,1,0-2.878c1.235-.007,2.47,0,3.7,0h.576v-.57c0-1.251-.005-2.5,0-3.754a1.438,1.438,0,1,1,2.876-.006c.01,1.251,0,2.5,0,3.754v.577h.809c1.171,0,2.341-.006,3.512,0a1.439,1.439,0,1,1,.008,2.877c-1.251.01-2.5,0-3.753,0h-.576v.955c0,1.123.007,2.246,0,3.369a1.44,1.44,0,1,1-2.879,0c-.009-1.251,0-2.5,0-3.754C616.555,181.8,616.555,181.625,616.555,181.417Z" transform="translate(-610.754 -172.706)" fill="#fff"/>
    </g>
  </g>
</svg>
