<svg id="plus-circle" xmlns="http://www.w3.org/2000/svg" width="46" height="46" viewBox="0 0 46 46">
  <rect id="Rectangle_275" data-name="Rectangle 275" width="46" height="46" fill="#007ba7" opacity="0"/>
  <path id="Path_3232" data-name="Path 3232" d="M21.167,2A19.167,19.167,0,1,0,40.333,21.167,19.167,19.167,0,0,0,21.167,2Zm5.75,21.083H23.083v3.833a1.917,1.917,0,1,1-3.833,0V23.083H15.417a1.917,1.917,0,1,1,0-3.833H19.25V15.417a1.917,1.917,0,1,1,3.833,0V19.25h3.833a1.917,1.917,0,1,1,0,3.833Z" transform="translate(1.833 1.833)" fill="#007ba7"/>
</svg>
