<svg xmlns="http://www.w3.org/2000/svg" xmlns:xlink="http://www.w3.org/1999/xlink" width="67" height="68" viewBox="0 0 67 68">
  <defs>
    <filter id="Ellipse_133" x="0" y="0" width="67" height="68" filterUnits="userSpaceOnUse">
      <feOffset dy="3" input="SourceAlpha"/>
      <feGaussianBlur stdDeviation="5" result="blur"/>
      <feFlood flood-opacity="0.059"/>
      <feComposite operator="in" in2="blur"/>
      <feComposite in="SourceGraphic"/>
    </filter>
  </defs>
  <g id="share" transform="translate(15 12)">
    <g transform="matrix(1, 0, 0, 1, -15, -12)" filter="url(#Ellipse_133)">
      <ellipse id="Ellipse_133-2" data-name="Ellipse 133" cx="18.5" cy="19" rx="18.5" ry="19" transform="translate(15 12)" fill="#fff"/>
    </g>
    <g id="Group_552" data-name="Group 552" transform="translate(10.723 10.111)" opacity="0.58">
      <path id="Path_3138" data-name="Path 3138" d="M610.012,273.587c.138-.08.279-.164.421-.246q2.875-1.661,5.748-3.324a.212.212,0,0,1,.3.026,2.443,2.443,0,0,0,1.966.578,2.506,2.506,0,0,0,2.127-1.535,2.665,2.665,0,0,0-2.053-3.774,2.629,2.629,0,0,0-2.918,1.751,2.468,2.468,0,0,0-.084,1.447c.023.09-.033.11-.086.141l-1.236.714q-2.427,1.4-4.853,2.807a.2.2,0,0,1-.273-.028,2.469,2.469,0,0,0-1.877-.595,2.43,2.43,0,0,0-1.923,1.052,2.624,2.624,0,0,0-.432,1.832,2.571,2.571,0,0,0,1.28,2.011,2.662,2.662,0,0,0,3.081-.274c.087-.077.14-.045.213,0l5.376,3.182c.251.148.5.3.753.444a.112.112,0,0,1,.063.15,2.586,2.586,0,1,0,2.944-2.022,2.473,2.473,0,0,0-2.111.6.143.143,0,0,1-.2.016q-3.069-1.82-6.141-3.634a.111.111,0,0,1-.064-.148A2.508,2.508,0,0,0,610.012,273.587Z" transform="translate(-604.815 -265.283)" fill="#333"/>
    </g>
  </g>
</svg>
