<svg xmlns="http://www.w3.org/2000/svg" width="20.392" height="19.482" viewBox="0 0 20.392 19.482">
  <g id="social-linkedin" transform="translate(-656.241 -716)">
    <path id="Path_3181" data-name="Path 3181" d="M676.633,735.483v-.136q0-3.762,0-7.524a8.292,8.292,0,0,0-.271-2.164,4.928,4.928,0,0,0-1.576-2.6,4.855,4.855,0,0,0-3.185-1.072,4.335,4.335,0,0,0-3.795,1.878.381.381,0,0,0-.032.079l-.049-.033v-1.607h-4.468v13.172h4.475v-.186q0-2.953,0-5.905,0-.742,0-1.484a2.356,2.356,0,0,1,.855-1.828,2.063,2.063,0,0,1,3.394,1,4.962,4.962,0,0,1,.164,1.364q0,3.425,0,6.849v.191ZM656.524,722.3V735.48h4.455V722.3Zm2.222-1.622c.232-.03.467-.045.7-.093a2.248,2.248,0,0,0,1.812-1.9,2.289,2.289,0,0,0-1.209-2.4,2.843,2.843,0,0,0-1.9-.217,2.187,2.187,0,0,0-1.764,1.49,2.241,2.241,0,0,0,.443,2.311A2.513,2.513,0,0,0,658.746,720.681Z" fill="#fff"/>
    <path id="Path_3182" data-name="Path 3182" d="M686.366,743.8h-4.488V743.6q0-3.425,0-6.849a4.961,4.961,0,0,0-.164-1.364,2.063,2.063,0,0,0-3.394-1,2.356,2.356,0,0,0-.855,1.828q0,.742,0,1.484,0,2.953,0,5.9v.186h-4.475V730.622h4.468v1.607l.049.033a.374.374,0,0,1,.032-.079,4.335,4.335,0,0,1,3.795-1.878,4.856,4.856,0,0,1,3.185,1.072,4.929,4.929,0,0,1,1.576,2.6,8.293,8.293,0,0,1,.271,2.164q0,3.762,0,7.524Z" transform="translate(-9.734 -8.313)" fill="#fff"/>
    <path id="Path_3183" data-name="Path 3183" d="M656.917,731.049h4.455v13.177h-4.455Z" transform="translate(-0.393 -8.746)" fill="#fff"/>
    <path id="Path_3184" data-name="Path 3184" d="M658.746,720.681a2.513,2.513,0,0,1-1.921-.808,2.241,2.241,0,0,1-.443-2.311,2.187,2.187,0,0,1,1.764-1.49,2.843,2.843,0,0,1,1.9.217,2.289,2.289,0,0,1,1.209,2.4,2.248,2.248,0,0,1-1.812,1.9C659.214,720.636,658.979,720.65,658.746,720.681Z" fill="#fff"/>
  </g>
</svg>
