<svg xmlns="http://www.w3.org/2000/svg" width="11.476" height="23.998" viewBox="0 0 11.476 23.998">
  <path id="social-facebook" d="M829.124,870.417v.858c0,3.367-.014,6.734.013,10.1,0,.617-.132.865-.8.831-1.087-.056-2.181-.049-3.269,0-.59.025-.735-.179-.731-.742.023-3.367.011-6.734.011-10.1v-.944c-.878,0-1.672-.038-2.459.013-.6.039-.743-.2-.721-.755.039-.967.036-1.938,0-2.906-.019-.528.127-.744.688-.713.792.043,1.589.011,2.492.011,0-1-.043-1.941.012-2.873a14.573,14.573,0,0,1,.344-2.789,2.762,2.762,0,0,1,2.767-2.16c1.548-.062,3.1-.014,4.65-.029.379,0,.515.147.511.517-.013,1.041.02,2.084-.027,3.124a.726.726,0,0,1-.5.5c-.623.069-1.257.027-1.886.046a1,1,0,0,0-1.074,1.04c-.036.842-.009,1.687-.009,2.629.957,0,1.87.026,2.78-.01.522-.02.743.114.719.682-.042.991-.038,1.987,0,2.979.02.533-.134.736-.69.711C831.036,870.388,830.121,870.417,829.124,870.417Z" transform="translate(-821.165 -858.212)" fill="#fff"/>
</svg>
