<svg xmlns="http://www.w3.org/2000/svg" width="11.428" height="20" viewBox="0 0 11.428 20"><path d="M1428,16l-2.741,0c-3.079,0-5.069,1.932-5.069,4.923v2.268h-2.756a.421.421,0,0,0-.431.409v3.288a.419.419,0,0,0,.431.406h2.756v8.3a.419.419,0,0,0,.431.407h3.6a.419.419,0,0,0,.431-.407v-8.3h3.222a.419.419,0,0,0,.431-.406V23.6a.4.4,0,0,0-.126-.289.446.446,0,0,0-.3-.12h-3.223V21.265c0-.925.233-1.395,1.506-1.395H1428a.42.42,0,0,0,.43-.409V16.408A.42.42,0,0,0,1428,16Z" transform="translate(-1417 -15.996)" fill="#007ba7"/></svg>