<svg xmlns="http://www.w3.org/2000/svg" width="20" height="20" viewBox="0 0 20 20"><g transform="translate(0 -0.388)"><path d="M17,20H3a3,3,0,0,1-3-3V3.7A1.9,1.9,0,0,1,1.9,1.8H4.5V1a1,1,0,0,1,2,0v.8h7.9V1a1,1,0,0,1,2,0v.8h1.7A1.9,1.9,0,0,1,20,3.7V17A3,3,0,0,1,17,20ZM2,7.4V17a1,1,0,0,0,1,1H17a1,1,0,0,0,1-1V7.4ZM2,3.8V5.4H18V3.8H16.4a1,1,0,0,1-1.991,0H6.5A1,1,0,0,1,4.5,3.8Zm9.8,10.8H4.6a1,1,0,0,1,0-2h7.2a1,1,0,0,1,0,2ZM8.2,11H4.6a1,1,0,1,1,0-2H8.2a1,1,0,1,1,0,2Z" transform="translate(0 0.388)" fill="#92929d"/></g></svg>