<svg xmlns="http://www.w3.org/2000/svg" width="22" height="20" viewBox="0 0 22 20"><g transform="translate(0 0.209)"><path d="M11.094,20h-.188a3.06,3.06,0,0,1-2.21-.94L2.03,12.193A7.281,7.281,0,0,1,2.03,2.1,6.84,6.84,0,0,1,11,1.317a6.84,6.84,0,0,1,8.97.787,7.281,7.281,0,0,1,0,10.089L13.3,19.06A3.057,3.057,0,0,1,11.094,20Zm-.14-2h.14a1.076,1.076,0,0,0,.776-.333L18.535,10.8a5.281,5.281,0,0,0,0-7.3,4.843,4.843,0,0,0-6.848-.156,1,1,0,0,1-1.373,0A4.842,4.842,0,0,0,3.466,3.5a5.28,5.28,0,0,0,0,7.3l6.666,6.867a1.076,1.076,0,0,0,.775.333ZM11,14a1,1,0,0,1-1-1V11H8A1,1,0,1,1,8,9h2V7a1,1,0,0,1,2,0V9h2a1,1,0,1,1,0,2H12v2A1,1,0,0,1,11,14Z" transform="translate(0 -0.209)" fill="#92929d"/></g></svg>