<svg xmlns="http://www.w3.org/2000/svg" width="24" height="24" viewBox="0 0 24 24"><g transform="translate(0 -0.014)"><rect width="24" height="24" transform="translate(0 0.014)" fill="none"/><g transform="translate(1 3)"><path d="M3,19a3,3,0,0,1-3-3V6A3,3,0,0,1,3,3H6A3,3,0,0,1,9,0h4a3,3,0,0,1,3,3h3a3,3,0,0,1,3,3V16a3,3,0,0,1-3,3Zm16-2a1,1,0,0,0,1-1V6a1,1,0,0,0-1-1h-.5V17Zm-2.5,0V5H5.5V17ZM2,6V16a1,1,0,0,0,1,1h.5V5H3A1,1,0,0,0,2,6ZM14,3a1,1,0,0,0-1-1H9A1,1,0,0,0,8,3Z" transform="translate(0 0.014)" fill="#92929d"/></g></g></svg>