<svg xmlns="http://www.w3.org/2000/svg" width="20" height="20" viewBox="0 0 20 20"><path d="M13.333,10A3.335,3.335,0,0,0,10,6.667,3.335,3.335,0,0,0,6.667,10,3.335,3.335,0,0,0,10,13.333,3.335,3.335,0,0,0,13.333,10Zm1.8,0A5.112,5.112,0,0,1,10,15.13,5.112,5.112,0,0,1,4.87,10,5.112,5.112,0,0,1,10,4.87,5.112,5.112,0,0,1,15.13,10Zm1.406-5.338a1.2,1.2,0,1,1-2.044-.846,1.2,1.2,0,0,1,2.044.846ZM10,1.8,9,1.79q-.9-.007-1.374,0t-1.257.039a10.268,10.268,0,0,0-1.341.13A5.175,5.175,0,0,0,4.1,2.2,3.405,3.405,0,0,0,2.2,4.1a5.225,5.225,0,0,0-.241.931,10.268,10.268,0,0,0-.13,1.341q-.032.788-.039,1.257T1.791,9q.007.905.007,1t-.007,1q-.007.905,0,1.374t.039,1.257a10.268,10.268,0,0,0,.13,1.341,5.194,5.194,0,0,0,.241.93,3.405,3.405,0,0,0,1.9,1.9,5.225,5.225,0,0,0,.931.241,10.268,10.268,0,0,0,1.341.13q.788.032,1.257.039t1.374,0l1-.007,1,.007q.905.007,1.374,0t1.257-.039a10.267,10.267,0,0,0,1.341-.13A5.226,5.226,0,0,0,15.9,17.8a3.405,3.405,0,0,0,1.9-1.9,5.225,5.225,0,0,0,.241-.931,10.269,10.269,0,0,0,.13-1.341q.032-.788.039-1.257t0-1.374q-.007-.9-.007-1t.007-1q.007-.905,0-1.374t-.039-1.257a10.268,10.268,0,0,0-.13-1.341A5.125,5.125,0,0,0,17.8,4.1a3.405,3.405,0,0,0-1.9-1.9,5.225,5.225,0,0,0-.931-.241,10.268,10.268,0,0,0-1.341-.13q-.788-.032-1.257-.039T11,1.791L10,1.8ZM20,10q0,2.982-.065,4.128a6.108,6.108,0,0,1-1.614,4.193,6.108,6.108,0,0,1-4.193,1.614Q12.982,20,10,20t-4.128-.065a6.108,6.108,0,0,1-4.193-1.614A6.108,6.108,0,0,1,.065,14.128Q0,12.982,0,10T.065,5.872A6.108,6.108,0,0,1,1.679,1.679,6.108,6.108,0,0,1,5.872.065Q7.018,0,10,0t4.128.065a6.108,6.108,0,0,1,4.193,1.614,6.108,6.108,0,0,1,1.614,4.193Q20,7.018,20,10Z" fill="#007ba7"/></svg>