<svg xmlns="http://www.w3.org/2000/svg" width="20" height="18.626" viewBox="0 0 20 18.626"><path d="M1523.428,16a1.834,1.834,0,0,1,1.464.615,2.434,2.434,0,0,1,.57,1.544,2.1,2.1,0,0,1-2.242,2.172h-.024a2.125,2.125,0,0,1-1.613-.627,2.171,2.171,0,0,1-.594-1.546,2.016,2.016,0,0,1,.655-1.55A2.524,2.524,0,0,1,1523.428,16Zm-2.176,6.047h4.276V34.627h-4.276Zm19.738,5.366v7.212h-4.275V27.9a3.766,3.766,0,0,0-.5-2.063,1.832,1.832,0,0,0-1.673-.776,2.077,2.077,0,0,0-1.436.478,2.827,2.827,0,0,0-.776,1.053,1.863,1.863,0,0,0-.1.465c-.016.168-.024.35-.024.543v7.029h-4.3q.028-3.194.029-5.852V24.511c0-.62-.006-1.149-.016-1.585s-.013-.728-.013-.876h4.3v1.782l-.023.051h.023v-.051a5.058,5.058,0,0,1,.513-.688,3.845,3.845,0,0,1,.769-.669,4.235,4.235,0,0,1,1.1-.51,4.963,4.963,0,0,1,1.483-.2,5.652,5.652,0,0,1,1.952.333,3.966,3.966,0,0,1,1.566,1.049,5.023,5.023,0,0,1,1.034,1.764A7.519,7.519,0,0,1,1540.99,27.416Z" transform="translate(-1520.99 -16.003)" fill="#007ba7"/></svg>