<svg xmlns="http://www.w3.org/2000/svg" width="18.405" height="18.398" viewBox="0 0 18.405 18.398"><path d="M19.647,21.773h-.12C5.621,20.974,3.647,9.241,3.371,5.661A2.123,2.123,0,0,1,5.324,3.375h3.9a1.415,1.415,0,0,1,1.317.891l1.075,2.647A1.415,1.415,0,0,1,11.3,8.442L9.8,9.963a6.63,6.63,0,0,0,5.364,5.378L16.7,13.82a1.415,1.415,0,0,1,1.535-.29L20.9,14.6a1.415,1.415,0,0,1,.871,1.316v3.736A2.123,2.123,0,0,1,19.647,21.773ZM5.494,4.79a.708.708,0,0,0-.708.708v.057c.326,4.189,2.413,14.1,14.818,14.8a.708.708,0,0,0,.75-.665V15.914l-2.668-1.069-2.031,2.017-.34-.043C9.16,16.048,8.325,9.892,8.325,9.828l-.043-.34,2.01-2.031L9.23,4.79Z" transform="translate(-3.364 -3.375)" fill="#92929d"/></svg>