<svg xmlns="http://www.w3.org/2000/svg" width="25" height="17.577" viewBox="0 0 25 17.577"><path d="M9.918,12.226,16.67,8.739,9.918,5.209v7.017ZM12.5.2q2.344,0,4.527.062t3.2.133l1.019.056.237.021A3.1,3.1,0,0,1,21.8.514q.1.021.328.062a1.917,1.917,0,0,1,.4.112q.167.07.391.181a2.614,2.614,0,0,1,.433.272,3.435,3.435,0,0,1,.4.369,2.625,2.625,0,0,1,.216.258,4.75,4.75,0,0,1,.4.816,5.261,5.261,0,0,1,.369,1.409q.112.893.174,1.9T25,7.483V9.939a29.521,29.521,0,0,1-.251,4.046,5.586,5.586,0,0,1-.349,1.388,3.52,3.52,0,0,1-.447.858l-.2.237a3.288,3.288,0,0,1-.4.369,2.379,2.379,0,0,1-.433.265q-.223.1-.391.174a1.994,1.994,0,0,1-.4.112l-.335.062q-.1.02-.321.042t-.23.021q-3.5.265-8.747.265-2.887-.028-5.015-.091t-2.8-.1L4,17.527l-.5-.056a6.532,6.532,0,0,1-.76-.14,4.325,4.325,0,0,1-.712-.293,2.778,2.778,0,0,1-.788-.572,2.625,2.625,0,0,1-.216-.258,4.75,4.75,0,0,1-.4-.816,5.26,5.26,0,0,1-.369-1.409q-.112-.893-.174-1.9T0,10.5V8.041A29.52,29.52,0,0,1,.251,4,5.586,5.586,0,0,1,.6,2.607a3.52,3.52,0,0,1,.447-.858l.2-.237a3.288,3.288,0,0,1,.4-.369A2.733,2.733,0,0,1,2.078.87Q2.3.759,2.469.689a2.011,2.011,0,0,1,.4-.112L3.195.515q.1-.02.321-.042T3.753.452Q7.254.2,12.5.2Z" transform="translate(0.001 -0.201)" fill="#007ba7"/></svg>