<svg xmlns="http://www.w3.org/2000/svg" xmlns:xlink="http://www.w3.org/1999/xlink" width="40" height="40" viewBox="0 0 40 40">
  <defs>
    <clipPath id="clip-path">
      <rect id="Rectangle_66" data-name="Rectangle 66" width="40" height="40"/>
    </clipPath>
  </defs>
  <g id="Get_Notified" data-name="Get Notified" clip-path="url(#clip-path)">
    <path id="Path_117" data-name="Path 117" d="M0,0H40V40H0Z" fill="none"/>
    <g id="Group_2117" data-name="Group 2117" transform="translate(-198.539 -212.432)">
      <path id="Path_4282" data-name="Path 4282" d="M202.414,244.294a3.01,3.01,0,0,1-3.007-3.007V218.713a3.01,3.01,0,0,1,3.007-3.007h32.25a3.01,3.01,0,0,1,3.007,3.007v22.575a3.01,3.01,0,0,1-3.007,3.007Zm0-27.412a1.833,1.833,0,0,0-1.831,1.831v22.575a1.833,1.833,0,0,0,1.831,1.83h32.25a1.833,1.833,0,0,0,1.831-1.83V218.713a1.833,1.833,0,0,0-1.831-1.831Z" fill="#007aa6" fill-rule="evenodd"/>
      <path id="Path_4283" data-name="Path 4283" d="M325.8,474.924a.587.587,0,0,1-.584-.66l.806-6.451a.588.588,0,0,1,1.167.146l-.723,5.789h8.342l-.723-5.789a.587.587,0,0,1,.51-.657.6.6,0,0,1,.075,0,.588.588,0,0,1,.582.515l.806,6.45a.587.587,0,0,1-.583.661Z" transform="translate(-112.095 -224.18)" fill="#007aa6" fill-rule="evenodd"/>
      <path id="Path_4284" data-name="Path 4284" d="M303.593,527.663a.589.589,0,0,1,0-1.177h14.513a.589.589,0,1,1,0,1.177Z" transform="translate(-92.31 -276.919)" fill="#007aa6" fill-rule="evenodd"/>
      <path id="Path_4285" data-name="Path 4285" d="M291.071,273.23a10.263,10.263,0,1,1,10.263-10.263,10.263,10.263,0,0,1-10.263,10.263Zm0-19.349a9.087,9.087,0,1,0,9.087,9.087,9.087,9.087,0,0,0-9.087-9.087Z" transform="translate(-72.532 -32.967)" fill="#007aa6" fill-rule="evenodd"/>
      <path id="Path_4286" data-name="Path 4286" d="M372.609,305.536a.585.585,0,0,1-.416-.172l-2.419-2.419a.59.59,0,0,1-.172-.416v-4.837a.588.588,0,1,1,1.176,0v5.03L371,302.5l2.028,2.028a.588.588,0,0,1-.416,1Z" transform="translate(-151.651 -72.529)" fill="#007aa6" fill-rule="evenodd"/>
    </g>
  </g>
</svg>
