<svg xmlns="http://www.w3.org/2000/svg" width="28.746" height="28.71" viewBox="0 0 28.746 28.71">
  <g id="date" transform="translate(-489.87 -667.826)">
    <path id="Path_3155" data-name="Path 3155" d="M496.441,670.673c.265-2.123.827-2.846,2.119-2.847s1.884.766,2.1,2.771h7.158c.31-2.074.875-2.789,2.168-2.77,1.246.018,1.755.691,2.085,2.847.677,0,1.376-.007,2.074,0a4.287,4.287,0,0,1,4.429,4.307q.081,8.6,0,17.2a4.234,4.234,0,0,1-4.326,4.319q-10.012.075-20.026,0a4.255,4.255,0,0,1-4.342-4.478q-.029-8.466,0-16.931a4.321,4.321,0,0,1,4.416-4.411C495,670.665,495.706,670.673,496.441,670.673Zm-5.31,6c-.017.2-.039.346-.039.489,0,4.967-.018,9.934.007,14.9a3.147,3.147,0,0,0,3.4,3.262q9.7.021,19.407,0a3.234,3.234,0,0,0,3.493-3.543q0-7.054.006-14.108c0-.315,0-.63,0-1Zm9.552-4.759c-.279,1.985-.811,2.714-2.008,2.789-1.219.077-1.757-.582-2.255-2.759-3.544-.43-5.732,1-5.195,3.42H517.3c.215-2.633-1.813-3.986-5.263-3.374-.21,1.879-.783,2.7-2,2.692a1.775,1.775,0,0,1-1.279-.424,15.393,15.393,0,0,1-1.17-2.343Zm-2.945-.625h.005a4.9,4.9,0,0,0,.033,1.4c.1.314.5.737.768.738a1.077,1.077,0,0,0,.8-.7,14.273,14.273,0,0,0,0-2.9c-.029-.283-.548-.764-.759-.723a1.316,1.316,0,0,0-.812.79A4.662,4.662,0,0,0,497.738,671.291Zm11.4-.1h0a4.945,4.945,0,0,0,.032,1.4c.105.344.492.6.754.9.278-.278.761-.533.8-.839a13.1,13.1,0,0,0,0-2.809c-.03-.287-.482-.531-.741-.794-.279.275-.684.5-.8.836A4.057,4.057,0,0,0,509.134,671.188Z" transform="translate(0 0)" fill="#007ba7"/>
    <path id="Path_3156" data-name="Path 3156" d="M612.872,740.014h-2.091v-2.05h2.091Z" transform="translate(-99.579 -57.764)" fill="#007ba7"/>
    <path id="Path_3157" data-name="Path 3157" d="M612.853,767.177h-2.095v-2.049h2.095Z" transform="translate(-99.56 -80.135)" fill="#007ba7"/>
    <path id="Path_3158" data-name="Path 3158" d="M612.87,793.075h-2.063V791h2.063Z" transform="translate(-99.601 -101.446)" fill="#007ba7"/>
    <path id="Path_3159" data-name="Path 3159" d="M580.525,739.581c-.308-2.457-.306-2.208,2.007-2.022v2.022Z" transform="translate(-74.544 -57.34)" fill="#007ba7"/>
    <path id="Path_3160" data-name="Path 3160" d="M580.829,764.949H582.9v2.065h-2.067Z" transform="translate(-74.912 -79.988)" fill="#007ba7"/>
    <path id="Path_3161" data-name="Path 3161" d="M580.8,792.953v-2.062h2.078v2.062Z" transform="translate(-74.889 -101.353)" fill="#007ba7"/>
    <path id="Path_3162" data-name="Path 3162" d="M520.079,740.019v-2.012h2.069v2.012Z" transform="translate(-24.88 -57.799)" fill="#007ba7"/>
    <path id="Path_3163" data-name="Path 3163" d="M549.512,737.819h2.013V739.9h-2.013Z" transform="translate(-49.12 -57.644)" fill="#007ba7"/>
    <path id="Path_3164" data-name="Path 3164" d="M522.259,767.23h-2.011v-2.038h2.011Z" transform="translate(-25.019 -80.188)" fill="#007ba7"/>
    <path id="Path_3165" data-name="Path 3165" d="M549.291,767.18v-2.025h2.057v2.025Z" transform="translate(-48.938 -80.158)" fill="#007ba7"/>
    <path id="Path_3166" data-name="Path 3166" d="M520.1,792.936v-2.067h2.063v2.067Z" transform="translate(-24.895 -101.335)" fill="#007ba7"/>
    <path id="Path_3167" data-name="Path 3167" d="M549.515,790.838h2.011v2.077h-2.011Z" transform="translate(-49.122 -101.309)" fill="#007ba7"/>
  </g>
</svg>
