<svg xmlns="http://www.w3.org/2000/svg" xmlns:xlink="http://www.w3.org/1999/xlink" width="318.26" height="205.612" viewBox="0 0 318.26 205.612"><defs><clipPath id="a"><path d="M159.13,0a159.13,159.13,0,0,1,159.13,159.13c0,87.885-53.6,8.854-141.487,8.854S0,247.015,0,159.13A159.13,159.13,0,0,1,159.13,0Z" transform="translate(0)" fill="none"/></clipPath></defs><g transform="translate(0)" opacity="0.5"><path d="M159.13,0a159.13,159.13,0,0,1,159.13,159.13c0,87.885-59.168,24.156-147.053,24.156S0,247.015,0,159.13A159.13,159.13,0,0,1,159.13,0Z" transform="translate(0.001 0)" fill="none"/><g transform="translate(0 0)" clip-path="url(#a)"><path d="M229.191,65.111a2.6,2.6,0,1,1,2.6,2.6A2.6,2.6,0,0,1,229.191,65.111Zm-20.835,0a2.6,2.6,0,1,1,2.6,2.6A2.6,2.6,0,0,1,208.356,65.111Zm-20.836,0a2.6,2.6,0,1,1,2.6,2.6A2.6,2.6,0,0,1,187.52,65.111Zm-20.836,0a2.6,2.6,0,1,1,2.6,2.6A2.6,2.6,0,0,1,166.685,65.111Zm-20.835,0a2.6,2.6,0,1,1,2.6,2.6A2.6,2.6,0,0,1,145.85,65.111Zm-20.836,0a2.6,2.6,0,1,1,2.6,2.6A2.6,2.6,0,0,1,125.014,65.111Zm-20.836,0a2.6,2.6,0,1,1,2.6,2.6A2.6,2.6,0,0,1,104.178,65.111Zm-20.835,0a2.6,2.6,0,1,1,2.6,2.6A2.6,2.6,0,0,1,83.343,65.111Zm-20.836,0a2.6,2.6,0,1,1,2.6,2.6A2.6,2.6,0,0,1,62.507,65.111Zm-20.836,0a2.6,2.6,0,1,1,2.6,2.6A2.6,2.6,0,0,1,41.671,65.111Zm-20.835,0a2.6,2.6,0,1,1,2.6,2.6A2.6,2.6,0,0,1,20.836,65.111ZM0,65.111a2.6,2.6,0,1,1,2.6,2.6A2.6,2.6,0,0,1,0,65.111ZM239.609,44.276a2.6,2.6,0,1,1,2.6,2.6A2.6,2.6,0,0,1,239.609,44.276Zm-20.835,0a2.6,2.6,0,1,1,2.6,2.6A2.6,2.6,0,0,1,218.774,44.276Zm-20.836,0a2.6,2.6,0,1,1,2.6,2.6A2.6,2.6,0,0,1,197.938,44.276Zm-20.836,0a2.6,2.6,0,1,1,2.6,2.6A2.6,2.6,0,0,1,177.1,44.276Zm-20.835,0a2.6,2.6,0,1,1,2.6,2.6A2.6,2.6,0,0,1,156.267,44.276Zm-20.836,0a2.6,2.6,0,1,1,2.6,2.6A2.6,2.6,0,0,1,135.431,44.276Zm-20.836,0a2.6,2.6,0,1,1,2.6,2.6A2.6,2.6,0,0,1,114.6,44.276Zm-20.835,0a2.6,2.6,0,1,1,2.6,2.6A2.6,2.6,0,0,1,93.76,44.276Zm-20.836,0a2.6,2.6,0,1,1,2.6,2.6A2.6,2.6,0,0,1,72.924,44.276Zm-20.836,0a2.6,2.6,0,1,1,2.6,2.6A2.6,2.6,0,0,1,52.088,44.276Zm-20.835,0a2.6,2.6,0,1,1,2.6,2.6A2.6,2.6,0,0,1,31.253,44.276Zm-20.836,0a2.6,2.6,0,1,1,2.6,2.6A2.6,2.6,0,0,1,10.418,44.276ZM229.191,23.441a2.6,2.6,0,1,1,2.6,2.6A2.6,2.6,0,0,1,229.191,23.441Zm-20.835,0a2.6,2.6,0,1,1,2.6,2.6A2.6,2.6,0,0,1,208.356,23.441Zm-20.836,0a2.6,2.6,0,1,1,2.6,2.6A2.6,2.6,0,0,1,187.52,23.441Zm-20.836,0a2.6,2.6,0,1,1,2.6,2.6A2.6,2.6,0,0,1,166.685,23.441Zm-20.835,0a2.6,2.6,0,1,1,2.6,2.6A2.6,2.6,0,0,1,145.85,23.441Zm-20.836,0a2.6,2.6,0,1,1,2.6,2.6A2.6,2.6,0,0,1,125.014,23.441Zm-20.836,0a2.6,2.6,0,1,1,2.6,2.6A2.6,2.6,0,0,1,104.178,23.441Zm-20.835,0a2.6,2.6,0,1,1,2.6,2.6A2.6,2.6,0,0,1,83.343,23.441Zm-20.836,0a2.6,2.6,0,1,1,2.6,2.6A2.6,2.6,0,0,1,62.507,23.441Zm-20.836,0a2.6,2.6,0,1,1,2.6,2.6A2.6,2.6,0,0,1,41.671,23.441Zm-20.835,0a2.6,2.6,0,1,1,2.6,2.6A2.6,2.6,0,0,1,20.836,23.441ZM0,23.441a2.6,2.6,0,1,1,2.6,2.6A2.6,2.6,0,0,1,0,23.441ZM239.609,2.6a2.6,2.6,0,1,1,2.6,2.6A2.6,2.6,0,0,1,239.609,2.6Zm-20.835,0a2.6,2.6,0,1,1,2.6,2.6A2.6,2.6,0,0,1,218.774,2.6Zm-20.836,0a2.6,2.6,0,1,1,2.6,2.6A2.6,2.6,0,0,1,197.938,2.6ZM177.1,2.6a2.6,2.6,0,1,1,2.6,2.6A2.6,2.6,0,0,1,177.1,2.6Zm-20.835,0a2.6,2.6,0,1,1,2.6,2.6A2.6,2.6,0,0,1,156.267,2.6Zm-20.836,0a2.6,2.6,0,1,1,2.6,2.6A2.6,2.6,0,0,1,135.431,2.6ZM114.6,2.6a2.6,2.6,0,1,1,2.6,2.6A2.6,2.6,0,0,1,114.6,2.6ZM93.76,2.6a2.6,2.6,0,1,1,2.6,2.6A2.6,2.6,0,0,1,93.76,2.6Zm-20.836,0a2.6,2.6,0,1,1,2.6,2.6A2.6,2.6,0,0,1,72.924,2.6Zm-20.836,0a2.6,2.6,0,1,1,2.6,2.6A2.6,2.6,0,0,1,52.088,2.6Zm-20.835,0a2.6,2.6,0,1,1,2.6,2.6A2.6,2.6,0,0,1,31.253,2.6Zm-20.836,0a2.6,2.6,0,1,1,2.6,2.6A2.6,2.6,0,0,1,10.418,2.6Z" transform="translate(63.426 -9.313)" fill="#fff"/><path d="M229.191,65.111a2.6,2.6,0,1,1,2.6,2.6A2.6,2.6,0,0,1,229.191,65.111Zm-20.835,0a2.6,2.6,0,1,1,2.6,2.6A2.6,2.6,0,0,1,208.356,65.111Zm-20.836,0a2.6,2.6,0,1,1,2.6,2.6A2.6,2.6,0,0,1,187.52,65.111Zm-20.836,0a2.6,2.6,0,1,1,2.6,2.6A2.6,2.6,0,0,1,166.685,65.111Zm-20.835,0a2.6,2.6,0,1,1,2.6,2.6A2.6,2.6,0,0,1,145.85,65.111Zm-20.836,0a2.6,2.6,0,1,1,2.6,2.6A2.6,2.6,0,0,1,125.014,65.111Zm-20.836,0a2.6,2.6,0,1,1,2.6,2.6A2.6,2.6,0,0,1,104.178,65.111Zm-20.835,0a2.6,2.6,0,1,1,2.6,2.6A2.6,2.6,0,0,1,83.343,65.111Zm-20.836,0a2.6,2.6,0,1,1,2.6,2.6A2.6,2.6,0,0,1,62.507,65.111Zm-20.836,0a2.6,2.6,0,1,1,2.6,2.6A2.6,2.6,0,0,1,41.671,65.111Zm-20.835,0a2.6,2.6,0,1,1,2.6,2.6A2.6,2.6,0,0,1,20.836,65.111ZM0,65.111a2.6,2.6,0,1,1,2.6,2.6A2.6,2.6,0,0,1,0,65.111ZM239.609,44.276a2.6,2.6,0,1,1,2.6,2.6A2.6,2.6,0,0,1,239.609,44.276Zm-20.835,0a2.6,2.6,0,1,1,2.6,2.6A2.6,2.6,0,0,1,218.774,44.276Zm-20.836,0a2.6,2.6,0,1,1,2.6,2.6A2.6,2.6,0,0,1,197.938,44.276Zm-20.836,0a2.6,2.6,0,1,1,2.6,2.6A2.6,2.6,0,0,1,177.1,44.276Zm-20.835,0a2.6,2.6,0,1,1,2.6,2.6A2.6,2.6,0,0,1,156.267,44.276Zm-20.836,0a2.6,2.6,0,1,1,2.6,2.6A2.6,2.6,0,0,1,135.431,44.276Zm-20.836,0a2.6,2.6,0,1,1,2.6,2.6A2.6,2.6,0,0,1,114.6,44.276Zm-20.835,0a2.6,2.6,0,1,1,2.6,2.6A2.6,2.6,0,0,1,93.76,44.276Zm-20.836,0a2.6,2.6,0,1,1,2.6,2.6A2.6,2.6,0,0,1,72.924,44.276Zm-20.836,0a2.6,2.6,0,1,1,2.6,2.6A2.6,2.6,0,0,1,52.088,44.276Zm-20.835,0a2.6,2.6,0,1,1,2.6,2.6A2.6,2.6,0,0,1,31.253,44.276Zm-20.836,0a2.6,2.6,0,1,1,2.6,2.6A2.6,2.6,0,0,1,10.418,44.276ZM229.191,23.441a2.6,2.6,0,1,1,2.6,2.6A2.6,2.6,0,0,1,229.191,23.441Zm-20.835,0a2.6,2.6,0,1,1,2.6,2.6A2.6,2.6,0,0,1,208.356,23.441Zm-20.836,0a2.6,2.6,0,1,1,2.6,2.6A2.6,2.6,0,0,1,187.52,23.441Zm-20.836,0a2.6,2.6,0,1,1,2.6,2.6A2.6,2.6,0,0,1,166.685,23.441Zm-20.835,0a2.6,2.6,0,1,1,2.6,2.6A2.6,2.6,0,0,1,145.85,23.441Zm-20.836,0a2.6,2.6,0,1,1,2.6,2.6A2.6,2.6,0,0,1,125.014,23.441Zm-20.836,0a2.6,2.6,0,1,1,2.6,2.6A2.6,2.6,0,0,1,104.178,23.441Zm-20.835,0a2.6,2.6,0,1,1,2.6,2.6A2.6,2.6,0,0,1,83.343,23.441Zm-20.836,0a2.6,2.6,0,1,1,2.6,2.6A2.6,2.6,0,0,1,62.507,23.441Zm-20.836,0a2.6,2.6,0,1,1,2.6,2.6A2.6,2.6,0,0,1,41.671,23.441Zm-20.835,0a2.6,2.6,0,1,1,2.6,2.6A2.6,2.6,0,0,1,20.836,23.441ZM0,23.441a2.6,2.6,0,1,1,2.6,2.6A2.6,2.6,0,0,1,0,23.441ZM239.609,2.6a2.6,2.6,0,1,1,2.6,2.6A2.6,2.6,0,0,1,239.609,2.6Zm-20.835,0a2.6,2.6,0,1,1,2.6,2.6A2.6,2.6,0,0,1,218.774,2.6Zm-20.836,0a2.6,2.6,0,1,1,2.6,2.6A2.6,2.6,0,0,1,197.938,2.6ZM177.1,2.6a2.6,2.6,0,1,1,2.6,2.6A2.6,2.6,0,0,1,177.1,2.6Zm-20.835,0a2.6,2.6,0,1,1,2.6,2.6A2.6,2.6,0,0,1,156.267,2.6Zm-20.836,0a2.6,2.6,0,1,1,2.6,2.6A2.6,2.6,0,0,1,135.431,2.6ZM114.6,2.6a2.6,2.6,0,1,1,2.6,2.6A2.6,2.6,0,0,1,114.6,2.6ZM93.76,2.6a2.6,2.6,0,1,1,2.6,2.6A2.6,2.6,0,0,1,93.76,2.6Zm-20.836,0a2.6,2.6,0,1,1,2.6,2.6A2.6,2.6,0,0,1,72.924,2.6Zm-20.836,0a2.6,2.6,0,1,1,2.6,2.6A2.6,2.6,0,0,1,52.088,2.6Zm-20.835,0a2.6,2.6,0,1,1,2.6,2.6A2.6,2.6,0,0,1,31.253,2.6Zm-20.836,0a2.6,2.6,0,1,1,2.6,2.6A2.6,2.6,0,0,1,10.418,2.6Z" transform="translate(63.426 74.029)" fill="#fff"/></g></g></svg>