<svg xmlns="http://www.w3.org/2000/svg" width="229.284" height="63.88" viewBox="0 0 229.284 63.88"><path d="M214.648,61.423a2.44,2.44,0,1,1,2.44,2.457A2.448,2.448,0,0,1,214.648,61.423Zm-19.513,0a2.439,2.439,0,1,1,2.439,2.457A2.448,2.448,0,0,1,195.135,61.423Zm-19.514,0a2.439,2.439,0,1,1,2.439,2.457A2.448,2.448,0,0,1,175.622,61.423Zm-19.514,0a2.44,2.44,0,1,1,2.44,2.457A2.448,2.448,0,0,1,156.108,61.423Zm-58.54,0a2.44,2.44,0,1,1,2.44,2.457A2.448,2.448,0,0,1,97.567,61.423Zm-19.513,0a2.439,2.439,0,1,1,2.439,2.457A2.448,2.448,0,0,1,78.054,61.423Zm-19.514,0a2.439,2.439,0,1,1,2.439,2.457A2.448,2.448,0,0,1,58.541,61.423Zm-19.514,0a2.44,2.44,0,1,1,2.44,2.457A2.448,2.448,0,0,1,39.027,61.423Zm97.568-.026a2.431,2.431,0,1,1,2.431,2.431A2.431,2.431,0,0,1,136.595,61.4Zm-19.514,0a2.431,2.431,0,1,1,2.431,2.431A2.431,2.431,0,0,1,117.081,61.4Zm-97.567,0a2.431,2.431,0,1,1,2.431,2.431A2.431,2.431,0,0,1,19.514,61.4ZM0,61.4a2.431,2.431,0,1,1,2.431,2.431A2.431,2.431,0,0,1,0,61.4ZM224.405,41.768a2.44,2.44,0,1,1,2.44,2.457A2.448,2.448,0,0,1,224.405,41.768Zm-19.513,0a2.439,2.439,0,1,1,2.439,2.457A2.448,2.448,0,0,1,204.892,41.768Zm-19.514,0a2.439,2.439,0,1,1,2.439,2.457A2.448,2.448,0,0,1,185.378,41.768Zm-19.514,0a2.44,2.44,0,1,1,2.44,2.457A2.448,2.448,0,0,1,165.865,41.768Zm-58.541,0a2.44,2.44,0,1,1,2.44,2.457A2.448,2.448,0,0,1,107.324,41.768Zm-19.513,0a2.439,2.439,0,1,1,2.439,2.457A2.448,2.448,0,0,1,87.811,41.768Zm-19.514,0a2.439,2.439,0,1,1,2.439,2.457A2.448,2.448,0,0,1,68.3,41.768Zm-19.514,0a2.44,2.44,0,1,1,2.44,2.457A2.448,2.448,0,0,1,48.784,41.768Zm97.568-.026a2.431,2.431,0,1,1,2.431,2.431A2.431,2.431,0,0,1,146.352,41.742Zm-19.514,0a2.431,2.431,0,1,1,2.431,2.431A2.431,2.431,0,0,1,126.838,41.742Zm-97.567,0A2.431,2.431,0,1,1,31.7,44.173,2.431,2.431,0,0,1,29.271,41.742Zm-19.514,0a2.431,2.431,0,1,1,2.431,2.431A2.431,2.431,0,0,1,9.757,41.742Zm204.891-19.63a2.44,2.44,0,1,1,2.44,2.457A2.448,2.448,0,0,1,214.648,22.112Zm-19.513,0a2.439,2.439,0,1,1,2.439,2.457A2.448,2.448,0,0,1,195.135,22.112Zm-19.514,0a2.439,2.439,0,1,1,2.439,2.457A2.448,2.448,0,0,1,175.622,22.112Zm-19.514,0a2.44,2.44,0,1,1,2.44,2.457A2.448,2.448,0,0,1,156.108,22.112Zm-58.54,0a2.44,2.44,0,1,1,2.44,2.457A2.448,2.448,0,0,1,97.567,22.112Zm-19.513,0a2.439,2.439,0,1,1,2.439,2.457A2.448,2.448,0,0,1,78.054,22.112Zm-19.514,0a2.439,2.439,0,1,1,2.439,2.457A2.448,2.448,0,0,1,58.541,22.112Zm-19.514,0a2.44,2.44,0,1,1,2.44,2.457A2.448,2.448,0,0,1,39.027,22.112Zm97.568-.026a2.431,2.431,0,1,1,2.431,2.431A2.431,2.431,0,0,1,136.595,22.086Zm-19.514,0a2.431,2.431,0,1,1,2.431,2.431A2.431,2.431,0,0,1,117.081,22.086Zm-97.567,0a2.431,2.431,0,1,1,2.431,2.431A2.431,2.431,0,0,1,19.514,22.086ZM0,22.086a2.431,2.431,0,1,1,2.431,2.431A2.431,2.431,0,0,1,0,22.086ZM224.405,2.457a2.44,2.44,0,1,1,2.44,2.457A2.448,2.448,0,0,1,224.405,2.457Zm-19.513,0a2.439,2.439,0,1,1,2.439,2.457A2.448,2.448,0,0,1,204.892,2.457Zm-19.514,0a2.439,2.439,0,1,1,2.439,2.457A2.448,2.448,0,0,1,185.378,2.457Zm-19.514,0a2.44,2.44,0,1,1,2.44,2.457A2.448,2.448,0,0,1,165.865,2.457Zm-58.541,0a2.44,2.44,0,1,1,2.44,2.457A2.448,2.448,0,0,1,107.324,2.457Zm-19.513,0A2.439,2.439,0,1,1,90.25,4.914,2.448,2.448,0,0,1,87.811,2.457Zm-19.514,0a2.439,2.439,0,1,1,2.439,2.457A2.448,2.448,0,0,1,68.3,2.457Zm-19.514,0a2.44,2.44,0,1,1,2.44,2.457A2.448,2.448,0,0,1,48.784,2.457Zm97.568-.026a2.431,2.431,0,1,1,2.431,2.431A2.431,2.431,0,0,1,146.352,2.431Zm-19.514,0a2.431,2.431,0,1,1,2.431,2.431A2.431,2.431,0,0,1,126.838,2.431Zm-97.567,0A2.431,2.431,0,1,1,31.7,4.862,2.431,2.431,0,0,1,29.271,2.431Zm-19.514,0a2.431,2.431,0,1,1,2.431,2.431A2.431,2.431,0,0,1,9.757,2.431Z" fill="#fff" opacity="0.5"/></svg>