<svg xmlns="http://www.w3.org/2000/svg" width="56" height="56" viewBox="0 0 56 56">
  <g id="Ellipse_1" data-name="Ellipse 1" transform="translate(-205 -3174)">
    <circle id="Ellipse_1-2" data-name="Ellipse 1" cx="28" cy="28" r="28" transform="translate(205 3174)" fill="#007ba7"/>
    <path id="Icon_awesome-wpforms" data-name="Icon awesome-wpforms" d="M31.5,5.287V30.72a3,3,0,0,1-3.038,3.037H3.037A3.013,3.013,0,0,1,0,30.712V5.287A3,3,0,0,1,3.037,2.25H28.47A3,3,0,0,1,31.5,5.287ZM28.877,30.712V5.287a.417.417,0,0,0-.408-.408h-.654L20.06,10.125,15.75,6.616l-4.3,3.509L3.691,4.873H3.037a.417.417,0,0,0-.408.408V30.713a.417.417,0,0,0,.408.408H28.47a.408.408,0,0,0,.408-.408ZM10.561,13.078v2.6H5.393v-2.6Zm0,5.231v2.623H5.393V18.309Zm.78-10.357,3.8-3.073H6.806l4.535,3.073Zm14.766,5.126v2.6H12.326v-2.6Zm0,5.231v2.623H12.326V18.309ZM20.159,7.952,24.694,4.88H16.369l3.79,3.073Zm5.948,15.6v2.623H19.118V23.555h6.989Z" transform="translate(217 3183.75)" fill="#fff"/>
  </g>
</svg>
