<svg xmlns="http://www.w3.org/2000/svg" width="56" height="56" viewBox="0 0 56 56">
  <g id="Ellipse_4" data-name="Ellipse 4" transform="translate(-205 -3580)">
    <circle id="Ellipse_3" data-name="Ellipse 3" cx="28" cy="28" r="28" transform="translate(205 3580)" fill="#007ba7"/>
    <path id="Path_2696" data-name="Path 2696" d="M56.5,12,42.674.153a.634.634,0,0,0-.825,0L28.026,12a.634.634,0,0,0-.221.481V31.8a.634.634,0,0,0,.634.634H56.086a.634.634,0,0,0,.634-.634V12.48A.634.634,0,0,0,56.5,12ZM29.072,13.922l8.885,8.719-8.885,7.823ZM39.26,21.494a7.2,7.2,0,1,1,6,0l-2.584-2.275a.634.634,0,0,0-.837,0Zm16.192-7.572V30.463l-8.885-7.823ZM42.262,1.468,54.373,11.847H52.351a.634.634,0,0,0,0,1.267h2.115l-4,3.927a8.465,8.465,0,1,0-16.406,0l-4-3.926h2.115a.634.634,0,0,0,0-1.267H30.151Zm-12.076,29.7L42.262,20.539,54.338,31.171Z" transform="translate(191.195 3592)" fill="#fff"/>
  </g>
</svg>
