<svg xmlns="http://www.w3.org/2000/svg" width="56" height="56" viewBox="0 0 56 56">
  <g id="Ellipse_3" data-name="Ellipse 3" transform="translate(-205 -3468)">
    <circle id="Ellipse_4" data-name="Ellipse 4" cx="28" cy="28" r="28" transform="translate(205 3468)" fill="#007ba7"/>
    <path id="Icon_awesome-list-ul" data-name="Icon awesome-list-ul" d="M2.308,3.375A2.308,2.308,0,1,0,4.615,5.683,2.308,2.308,0,0,0,2.308,3.375Zm0,7.692a2.308,2.308,0,1,0,2.308,2.308A2.308,2.308,0,0,0,2.308,11.067Zm0,7.692a2.308,2.308,0,1,0,2.308,2.308A2.308,2.308,0,0,0,2.308,18.76Zm21.538.769H8.462a.769.769,0,0,0-.769.769v1.538a.769.769,0,0,0,.769.769H23.846a.769.769,0,0,0,.769-.769V20.3A.769.769,0,0,0,23.846,19.529Zm0-15.385H8.462a.769.769,0,0,0-.769.769V6.452a.769.769,0,0,0,.769.769H23.846a.769.769,0,0,0,.769-.769V4.913A.769.769,0,0,0,23.846,4.144Zm0,7.692H8.462a.769.769,0,0,0-.769.769v1.538a.769.769,0,0,0,.769.769H23.846a.769.769,0,0,0,.769-.769V12.606A.769.769,0,0,0,23.846,11.837Z" transform="translate(221 3482.625)" fill="#fff"/>
  </g>
</svg>
