<svg xmlns="http://www.w3.org/2000/svg" width="56" height="56" viewBox="0 0 56 56">
  <g id="Ellipse_2" data-name="Ellipse 2" transform="translate(-205 -3272)">
    <circle id="Ellipse_2-2" data-name="Ellipse 2" cx="28" cy="28" r="28" transform="translate(205 3272)" fill="#007ba7"/>
    <g id="XMLID_1116_" transform="translate(217 3284)">
      <g id="XMLID_386_">
        <path id="XMLID_387_" d="M150.884,49.355h.926a.638.638,0,1,0,0-1.275h-.926a.147.147,0,0,1-.146-.146v-.619h.828a.638.638,0,1,0,0-1.275h-.828v-.619a.147.147,0,0,1,.146-.146h.926a.638.638,0,1,0,0-1.275h-.926a1.423,1.423,0,0,0-1.421,1.421v2.512A1.423,1.423,0,0,0,150.884,49.355Z" transform="translate(-140.381 -41.195)" fill="#fff"/>
        <path id="XMLID_388_" d="M213.819,48.08h-1.094a.638.638,0,1,0,0,1.275h1.094a1.658,1.658,0,1,0,0-3.315h-.074a.383.383,0,1,1,0-.765h.734a.638.638,0,0,0,0-1.275h-.734a1.658,1.658,0,1,0,0,3.315h.074a.383.383,0,0,1,0,.765Z" transform="translate(-199.012 -41.195)" fill="#fff"/>
        <path id="XMLID_389_" d="M89,44h-2.1a.638.638,0,0,0,0,1.275h.414v3.443a.638.638,0,0,0,1.275,0V45.275H89A.638.638,0,0,0,89,44Z" transform="translate(-81.202 -41.195)" fill="#fff"/>
        <path id="XMLID_390_" d="M279.392,45.275h.414v3.443a.638.638,0,0,0,1.275,0V45.275h.414a.638.638,0,1,0,0-1.275h-2.1a.638.638,0,1,0,0,1.275Z" transform="translate(-261.429 -41.195)" fill="#fff"/>
        <path id="XMLID_895_" d="M73.65,168H71.1a.638.638,0,0,0-.638.638v2.55a.638.638,0,0,0,.638.638h2.55a.638.638,0,0,0,.638-.638v-2.55A.638.638,0,0,0,73.65,168Zm-.638,2.55H71.737v-1.275h1.275Z" transform="translate(-66.416 -157.289)" fill="#fff"/>
        <path id="XMLID_896_" d="M323.626,208.638a.638.638,0,1,0,.187-.451A.642.642,0,0,0,323.626,208.638Z" transform="translate(-303.44 -194.739)" fill="#fff"/>
        <path id="XMLID_897_" d="M159.278,208h-8.511a.638.638,0,1,0,0,1.275h8.511a.638.638,0,0,0,0-1.275Z" transform="translate(-141.004 -194.739)" fill="#fff"/>
        <path id="XMLID_941_" d="M73.65,272H71.1a.638.638,0,0,0-.638.638v2.55a.638.638,0,0,0,.638.638h2.55a.638.638,0,0,0,.638-.638v-2.55A.638.638,0,0,0,73.65,272Zm-.638,2.55H71.737v-1.275h1.275Z" transform="translate(-66.416 -254.659)" fill="#fff"/>
        <path id="XMLID_982_" d="M73.65,376H71.1a.638.638,0,0,0-.638.638v2.55a.638.638,0,0,0,.638.638h2.55a.638.638,0,0,0,.638-.638v-2.55A.638.638,0,0,0,73.65,376Zm-.638,2.55H71.737v-1.275h1.275Z" transform="translate(-66.416 -352.029)" fill="#fff"/>
        <path id="XMLID_983_" d="M156.241,416h-5.475a.638.638,0,0,0,0,1.275h5.475a.638.638,0,1,0,0-1.275Z" transform="translate(-141.004 -389.478)" fill="#fff"/>
        <path id="XMLID_1111_" d="M37.543,5.074a2.423,2.423,0,0,0-3.309.887L33.62,7.024h0l-.858,1.487V2.168A2.17,2.17,0,0,0,30.594,0H9.173A2.17,2.17,0,0,0,7.005,2.168V30.474a2.17,2.17,0,0,0,2.168,2.168H30.594a2.17,2.17,0,0,0,2.168-2.168V18.3a.635.635,0,0,0-.006-.085l5.061-8.766.614-1.063A2.425,2.425,0,0,0,37.543,5.074Zm-1.508.99a1.148,1.148,0,0,1,1.291,1.682l-.295.511L35.043,7.109l.295-.511A1.14,1.14,0,0,1,36.035,6.064Zm-7.76,17.359-1.988-1.148L34.405,8.213l1.988,1.148Zm-2.353.114,1.444.834L25.63,25.708Zm5.565,6.938a.894.894,0,0,1-.893.893H9.173a.894.894,0,0,1-.893-.893V2.168a.894.894,0,0,1,.893-.893H30.594a.894.894,0,0,1,.893.893v8.543s0,.005,0,.008l-5.3,9.173H16.767a.638.638,0,1,0,0,1.275h8.688l-.591,1.023a.639.639,0,0,0-.08.234l-.624,4.651a.637.637,0,0,0,1.021.59L28.9,24.8a.639.639,0,0,0,.163-.186l2.426-4.2Z" transform="translate(-7.005)" fill="#fff"/>
      </g>
    </g>
  </g>
</svg>
