<svg xmlns="http://www.w3.org/2000/svg" xmlns:xlink="http://www.w3.org/1999/xlink" width="21" height="15.656" viewBox="0 0 21 15.656">
  <defs>
    <filter id="Vector" x="12.382" y="0.904" width="8.618" height="13.848" filterUnits="userSpaceOnUse">
      <feOffset dy="1" input="SourceAlpha"/>
      <feGaussianBlur stdDeviation="0.5" result="blur"/>
      <feFlood flood-opacity="0.161"/>
      <feComposite operator="in" in2="blur"/>
      <feComposite in="SourceGraphic"/>
    </filter>
    <filter id="Vector-2" x="0.904" y="0" width="19.191" height="10.563" filterUnits="userSpaceOnUse">
      <feOffset dy="1" input="SourceAlpha"/>
      <feGaussianBlur stdDeviation="0.5" result="blur-2"/>
      <feFlood flood-opacity="0.161"/>
      <feComposite operator="in" in2="blur-2"/>
      <feComposite in="SourceGraphic"/>
    </filter>
    <filter id="Vector-3" x="0" y="0.904" width="8.618" height="13.848" filterUnits="userSpaceOnUse">
      <feOffset dy="1" input="SourceAlpha"/>
      <feGaussianBlur stdDeviation="0.5" result="blur-3"/>
      <feFlood flood-opacity="0.161"/>
      <feComposite operator="in" in2="blur-3"/>
      <feComposite in="SourceGraphic"/>
    </filter>
    <filter id="Vector-4" x="0.904" y="7.074" width="19.191" height="8.583" filterUnits="userSpaceOnUse">
      <feOffset dy="1" input="SourceAlpha"/>
      <feGaussianBlur stdDeviation="0.5" result="blur-4"/>
      <feFlood flood-opacity="0.161"/>
      <feComposite operator="in" in2="blur-4"/>
      <feComposite in="SourceGraphic"/>
    </filter>
  </defs>
  <g id="Email-icon" transform="translate(-121.5 -238.172)">
    <g id="mail_1" data-name="mail 1" transform="translate(123 236)">
      <g transform="matrix(1, 0, 0, 1, -1.5, 2.17)" filter="url(#Vector)">
        <path id="Vector-5" data-name="Vector" d="M17.842.9,12.382,6.328l5.459,5.424A1.564,1.564,0,0,0,18,11.074V1.582A1.564,1.564,0,0,0,17.842.9Z" transform="translate(1.5 0.5)" fill="#007ba7"/>
      </g>
      <g transform="matrix(1, 0, 0, 1, -1.5, 2.17)" filter="url(#Vector-2)">
        <path id="Vector-6" data-name="Vector" d="M16.418,0H1.582A1.564,1.564,0,0,0,.9.159L7.882,7.1a1.583,1.583,0,0,0,2.237,0L17.1.159A1.564,1.564,0,0,0,16.418,0Z" transform="translate(1.5 0.5)" fill="#007ba7"/>
      </g>
      <g transform="matrix(1, 0, 0, 1, -1.5, 2.17)" filter="url(#Vector-3)">
        <path id="Vector-7" data-name="Vector" d="M.159.9A1.564,1.564,0,0,0,0,1.582v9.492a1.564,1.564,0,0,0,.159.678L5.618,6.328Z" transform="translate(1.5 0.5)" fill="#007ba7"/>
      </g>
      <g transform="matrix(1, 0, 0, 1, -1.5, 2.17)" filter="url(#Vector-4)">
        <path id="Vector-8" data-name="Vector" d="M11.637,7.074l-.772.772a2.639,2.639,0,0,1-3.728,0l-.772-.772L.9,12.5a1.564,1.564,0,0,0,.678.159H16.418A1.564,1.564,0,0,0,17.1,12.5Z" transform="translate(1.5 0.5)" fill="#007ba7"/>
      </g>
    </g>
  </g>
</svg>
