<svg xmlns="http://www.w3.org/2000/svg" width="36.489" height="22.408" viewBox="0 0 36.489 22.408">
  <g id="email" transform="translate(-932.477 -301)">
    <path id="Path_3190" data-name="Path 3190" d="M959.345,323.405q-5.782,0-11.563,0a3.313,3.313,0,0,1-3.233-1.878,3.924,3.924,0,0,1-.357-1.559c-.048-1.363-.015-2.73-.018-4.1a.681.681,0,0,1,.44-.747c.462-.159.832.15.836.72.009,1.351,0,2.7.006,4.053a2.063,2.063,0,0,0,1.551,2.136,3.092,3.092,0,0,0,.8.086q11.563.007,23.126,0a2.115,2.115,0,0,0,2.318-2.3q.006-7.616,0-15.233a2.114,2.114,0,0,0-2.311-2.307q-11.584,0-23.169,0a2.124,2.124,0,0,0-2.318,2.344c0,1.238,0,2.475,0,3.713a1.72,1.72,0,0,1-.026.424.626.626,0,0,1-1.231-.025,1.808,1.808,0,0,1-.021-.34c0-1.28-.007-2.56,0-3.84a3.348,3.348,0,0,1,3.525-3.553q11.67-.016,23.34,0a3.327,3.327,0,0,1,3.49,3.5q.02,7.7,0,15.4a3.343,3.343,0,0,1-3.58,3.495Q965.148,323.413,959.345,323.405Z" transform="translate(-5.576)" fill="#007ba7"/>
    <path id="Path_3191" data-name="Path 3191" d="M966.022,314.669c1.358,1.248,2.655,2.441,3.952,3.634l3.045,2.8a1.65,1.65,0,0,1,.149.152.607.607,0,0,1,0,.882.573.573,0,0,1-.844.027c-.487-.415-.954-.852-1.426-1.284q-2.723-2.49-5.444-4.982c-.114-.1-.234-.2-.387-.334l-1.646,1.5c-.284.259-.56.526-.851.776a.678.678,0,0,1-1.055-.016c-.7-.629-1.384-1.268-2.076-1.9-.124-.113-.252-.222-.4-.349-.129.109-.238.195-.34.288q-3.335,3.053-6.669,6.107a1.808,1.808,0,0,1-.332.265.58.58,0,0,1-.775-.108.569.569,0,0,1-.026-.812,9.21,9.21,0,0,1,.731-.714q3.06-2.818,6.124-5.63c.093-.085.2-.156.412-.323a2.932,2.932,0,0,1-.4-.246q-3.254-2.984-6.5-5.975c-.094-.087-.19-.172-.277-.266a.622.622,0,0,1-.081-.911.633.633,0,0,1,.952-.009c.672.592,1.326,1.2,1.987,1.809l7.958,7.289c.073.066.15.127.244.206.095-.071.189-.129.27-.2q4.748-4.352,9.495-8.706c.168-.153.331-.314.511-.451a.594.594,0,0,1,.848.048.585.585,0,0,1-.022.876c-.3.318-.637.609-.962.907q-2.9,2.67-5.812,5.338C966.276,314.447,966.169,314.538,966.022,314.669Z" transform="translate(-8.271 -2.471)" fill="#007ba7"/>
    <path id="Path_3192" data-name="Path 3192" d="M939.392,320.188h-3.5a2.364,2.364,0,0,1-.383-.017.6.6,0,0,1-.566-.636.6.6,0,0,1,.549-.607,2.239,2.239,0,0,1,.382-.02h7.08c.575.007.881.237.871.653s-.3.625-.854.626C941.78,320.191,940.586,320.188,939.392,320.188Z" transform="translate(-1.795 -7.343)" fill="#007ba7"/>
    <path id="Path_3193" data-name="Path 3193" d="M932.233,312.6c-.4,0-.8,0-1.206,0-.294,0-.453-.229-.458-.625s.163-.65.468-.651q1.218-.007,2.436,0c.291,0,.453.234.458.626.005.409-.161.645-.468.65C933.053,312.607,932.643,312.6,932.233,312.6Z" transform="translate(2.583 -4.232)" fill="#007ba7"/>
    <path id="Path_3194" data-name="Path 3194" d="M935.044,326.491c.526,0,1.053-.008,1.579,0,.477.011.755.258.752.641s-.284.627-.763.631q-1.6.014-3.2,0c-.475,0-.753-.258-.75-.641s.284-.622.761-.632C933.963,326.483,934.5,326.491,935.044,326.491Z" transform="translate(-0.184 -10.453)" fill="#007ba7"/>
  </g>
</svg>
