<svg xmlns="http://www.w3.org/2000/svg" width="25.953" height="30.385" viewBox="0 0 25.953 30.385">
  <g id="experience" transform="translate(-670.007 -705)">
    <path id="Path_3171" data-name="Path 3171" d="M670.419,708.41c.685.782,1.478,1.4,1.466,2.7-.063,6.315-.029,12.631-.028,18.946,0,1.577.559,2.16,2.118,2.161q8.955.01,17.91,0c1.566,0,2.139-.585,2.14-2.143,0-6.374.013-12.747-.01-19.121,0-1.284.967-1.809,1.836-2.529.024.239.07.476.07.715q.007,11.421,0,22.842c0,1.375-.64,2.038-2,2.04q-10.946.01-21.89,0a1.728,1.728,0,0,1-1.956-1.98q-.013-11.421,0-22.842a6.2,6.2,0,0,1,.088-.728Z" transform="translate(0.027 1.354)" fill="#007ba7"/>
    <path id="Path_3172" data-name="Path 3172" d="M681.79,711.706c-.746.795-1.545,1.649-2.347,2.5-.415.44-.851.862-1.245,1.32-.362.422-.638.474-1.028.006-2.267-2.723-4.556-5.428-6.835-8.141a4.34,4.34,0,0,0-.328-.453c.576-.475,1.136-.972,1.735-1.415a.754.754,0,0,1,.662-.1c3.124,2.006,6.23,4.038,9.337,6.068C681.758,711.5,681.755,711.545,681.79,711.706Z" transform="translate(0 0.151)" fill="#007ba7"/>
    <path id="Path_3173" data-name="Path 3173" d="M678.774,713.88h2.371c.179,1.755.361,3.492.532,5.228.222,2.234.423,4.471.665,6.7a1.355,1.355,0,0,1-.442,1.292c-.631.585-1.182,1.256-1.843,1.971-.868-.855-1.636-1.58-2.356-2.35a1.038,1.038,0,0,1-.121-.719C677.967,721.994,678.368,717.985,678.774,713.88Z" transform="translate(3.004 3.527)" fill="#007ba7"/>
    <path id="Path_3174" data-name="Path 3174" d="M691.953,706.971c-.743.89-1.3,1.548-1.847,2.209-1.737,2.079-3.49,4.145-5.2,6.247-.456.56-.745.541-1.21.027-1.157-1.281-2.361-2.519-3.6-3.829a6.887,6.887,0,0,1,.556-.456c2.849-1.855,5.71-3.693,8.543-5.57a.806.806,0,0,1,1.241.138A14.407,14.407,0,0,0,691.953,706.971Z" transform="translate(4.007 0.147)" fill="#007ba7"/>
    <path id="Path_3175" data-name="Path 3175" d="M672.848,705h17.979a4.052,4.052,0,0,1-2.59,1.217q-6.4-.08-12.793,0A4.077,4.077,0,0,1,672.848,705Z" transform="translate(1.128 0)" fill="#007ba7"/>
    <path id="Path_3176" data-name="Path 3176" d="M679.834,714.173c-1.2.42-1.766-.521-2.3-1.538-.254-.483-.2-.84.342-1.011a6.934,6.934,0,0,1,4.321,0c.483.155.571.474.37.947C681.957,714.013,681.723,714.173,679.834,714.173Z" transform="translate(2.932 2.494)" fill="#007ba7"/>
  </g>
</svg>
