<svg xmlns="http://www.w3.org/2000/svg" width="19.168" height="32.59" viewBox="0 0 19.168 32.59">
  <g id="expire-date" transform="translate(-629.816 -635.41)">
    <path id="Path_3168" data-name="Path 3168" d="M629.816,668v-2.055l1.942-.2c0-1.586,0-3.146,0-4.706a7.017,7.017,0,0,1,3.319-6.367,10.7,10.7,0,0,0,1.527-1.16,2.5,2.5,0,0,0,0-3.669,15.022,15.022,0,0,0-1.776-1.318,6.813,6.813,0,0,1-3.06-5.9c-.03-1.616-.006-3.232-.006-4.932l-1.917-.174V635.41h19.126v2.074l-1.925.208c0,1.421-.04,2.878.009,4.332a7.316,7.316,0,0,1-3.608,6.965c-.167.1-.326.221-.485.337-2.139,1.576-2.233,3.453-.005,4.834a8.163,8.163,0,0,1,4.1,8.209c-.081,1.075-.013,2.161-.013,3.338l1.943.244V668Zm16.347-2.232c0-1.345-.078-2.572.015-3.786a7.272,7.272,0,0,0-3.606-7.082c-2.778-1.847-2.733-4.307-.035-6.251,1.41-1.016,2.985-2.029,3.259-3.84.354-2.341.339-4.739.481-7.093h-13.64c0,1.4.074,2.678-.014,3.95a7.114,7.114,0,0,0,3.508,6.833c2.945,1.983,2.9,4.342-.018,6.42-1.648,1.175-3.172,2.485-3.336,4.627-.156,2.036-.034,4.094-.034,6.222Z" transform="translate(0 0)" fill="#007ba7"/>
    <path id="Path_3169" data-name="Path 3169" d="M647.857,667.81c-.94-.833-2.1-1.964-3.368-2.962a6.465,6.465,0,0,1-2.77-5.2h12.137a5.92,5.92,0,0,1-2.458,5.1C650.1,665.775,648.888,666.911,647.857,667.81Z" transform="translate(-8.384 -17.07)" fill="#007ba7"/>
    <path id="Path_3170" data-name="Path 3170" d="M650.381,718.589l4.827,5.022h-9.8Z" transform="translate(-10.982 -58.588)" fill="#007ba7"/>
  </g>
</svg>
