<svg xmlns="http://www.w3.org/2000/svg" width="13.194" height="23.091" viewBox="0 0 13.194 23.091">
  <path id="facebook" d="M1429.7,16,1426.532,16c-3.555,0-5.853,2.231-5.853,5.684V24.3H1417.5a.486.486,0,0,0-.5.472v3.8a.484.484,0,0,0,.5.469h3.182v9.58a.484.484,0,0,0,.5.47h4.151a.484.484,0,0,0,.5-.47v-9.58h3.72a.484.484,0,0,0,.5-.469v-3.8a.46.46,0,0,0-.146-.333.515.515,0,0,0-.352-.139h-3.721V22.079c0-1.068.269-1.61,1.738-1.61h2.132a.485.485,0,0,0,.5-.472V16.472A.484.484,0,0,0,1429.7,16Z" transform="translate(-1417 -15.996)" fill="#007ba7"/>
</svg>
