<svg xmlns="http://www.w3.org/2000/svg" width="30.5" height="31.097" viewBox="0 0 30.5 31.097">
  <g id="gender" transform="translate(-840.01 -589.415)">
    <path id="Path_3177" data-name="Path 3177" d="M852.593,606.91a8.748,8.748,0,1,1,8.745-8.774A8.82,8.82,0,0,1,852.593,606.91Zm-.024-2.211a6.538,6.538,0,1,0-6.514-6.561A6.509,6.509,0,0,0,852.57,604.7Z" transform="translate(2.667 0)" fill="#007ba7"/>
    <path id="Path_3178" data-name="Path 3178" d="M855.274,601.571a17.511,17.511,0,0,1,14.9,8.5c.354.563.531,1.1.022,1.646-.546.582-1.329.392-1.865-.485a15.227,15.227,0,0,0-25.914-.354c-.739,1.16-1.243,1.421-1.911.987s-.671-1.033.075-2.162C844.052,604.45,849,601.856,855.274,601.571Z" transform="translate(0 8.454)" fill="#007ba7"/>
  </g>
</svg>
