<svg xmlns="http://www.w3.org/2000/svg" xmlns:xlink="http://www.w3.org/1999/xlink" width="40" height="40" viewBox="0 0 40 40">
  <defs>
    <clipPath id="clip-path">
      <path id="Path_4245" data-name="Path 4245" d="M139.21,139.21h38.145v38.145H139.21Z" transform="translate(-139.21 -139.21)" fill="#fff"/>
    </clipPath>
    <clipPath id="clip-Create_Preferences">
      <rect width="40" height="40"/>
    </clipPath>
  </defs>
  <g id="Create_Preferences" data-name="Create Preferences" clip-path="url(#clip-Create_Preferences)">
    <rect width="40" height="40" fill="#e1e1e5"/>
    <g id="download_-_2022-10-03T153738.682" data-name="download - 2022-10-03T153738.682" transform="translate(-138.21 -138.21)">
      <g id="Group_2113" data-name="Group 2113" transform="translate(139.21 139.21)" clip-path="url(#clip-path)">
        <path id="Path_4244" data-name="Path 4244" d="M177.95,173.861l-7.109-5.722.867-1.04-.636-.578-.636.809v-17.4h7.225v-5.953a4.021,4.021,0,0,0-4.046-4.046h-29.65a4.021,4.021,0,0,0-4.046,4.046v33.7h30.459v-3.121l4.219,3.41ZM165.813,167.5a8.219,8.219,0,1,1-1.214-11.559,8.093,8.093,0,0,1,3.005,5.491,8.246,8.246,0,0,1-1.792,6.068Zm.693.52.52-.693,2.081,1.676c-.809.983-.578.693-1.1,1.329l-2.023-1.676A6.132,6.132,0,0,0,166.507,168.024Zm10.229-24.043v5.086h-6.358V143.98a3.207,3.207,0,0,1,3.179-3.179A3.169,3.169,0,0,1,176.736,143.98Zm-7.224,32.771H140.787V143.98a3.207,3.207,0,0,1,3.179-3.179h27.106a4.144,4.144,0,0,0-1.561,3.179v24.274l-2.081-1.676a8.971,8.971,0,1,0-2.138,2.717l2.139,1.734-.578.693-.867,1.04.693.52.867-1.04,1.965,1.618Zm-1.445-5.2c1.676-2.081,1.329-1.618,2.254-2.774l6.415,5.2-2.254,2.774Z" transform="translate(-139.863 -139.877)" fill="#fff"/>
      </g>
      <path id="Path_4246" data-name="Path 4246" d="M200.92,201.64h20.4v.867h-20.4Z" transform="translate(-56.739 -57.401)" fill="#fff"/>
      <path id="Path_4247" data-name="Path 4247" d="M200.92,253.3h20.4v.867h-20.4Z" transform="translate(-56.739 -104.9)" fill="#fff"/>
      <path id="Path_4248" data-name="Path 4248" d="M200.92,305.68h8.843v.867H200.92Z" transform="translate(-56.739 -153.061)" fill="#fff"/>
      <path id="Path_4249" data-name="Path 4249" d="M200.92,357.34h5.26v.867h-5.26Z" transform="translate(-56.739 -200.56)" fill="#fff"/>
      <path id="Path_4250" data-name="Path 4250" d="M200.92,409.73H205.2v.867H200.92Z" transform="translate(-56.739 -248.73)" fill="#fff"/>
      <path id="Path_4251" data-name="Path 4251" d="M200.92,462.11h5.086v.867H200.92Z" transform="translate(-56.739 -296.891)" fill="#fff"/>
      <path id="Path_4252" data-name="Path 4252" d="M200.92,513.77h8.207v.867H200.92Z" transform="translate(-56.739 -344.39)" fill="#fff"/>
      <path id="Path_4253" data-name="Path 4253" d="M200.92,566.15h20.4v.867h-20.4Z" transform="translate(-56.739 -392.551)" fill="#fff"/>
      <path id="Path_4254" data-name="Path 4254" d="M356.069,362.678a2.312,2.312,0,1,0-2.312-2.312A2.319,2.319,0,0,0,356.069,362.678Zm0-3.757a1.445,1.445,0,1,1-1.445,1.445A1.431,1.431,0,0,1,356.069,358.921Z" transform="translate(-197.266 -201.217)" fill="#fff"/>
      <path id="Path_4255" data-name="Path 4255" d="M326.381,418.34c-2.312,0-4.508,1.5-4.913,4.8h9.825c-.4-3.178-2.543-4.8-4.913-4.8Zm-3.93,3.93a3.98,3.98,0,0,1,3.93-3.063,4.027,4.027,0,0,1,3.93,3.063Z" transform="translate(-167.578 -256.647)" fill="#fff"/>
    </g>
  </g>
</svg>
