<svg xmlns="http://www.w3.org/2000/svg" width="65.98" height="65.98" viewBox="0 0 65.98 65.98">
  <g id="hover" transform="translate(0 0)">
    <circle id="Oval" cx="32.99" cy="32.99" r="32.99" transform="translate(0 0)" fill="#fff"/>
    <g id="Group_372" data-name="Group 372" transform="translate(16.985 16.984)">
      <path id="Path_3116" data-name="Path 3116" d="M623.573,191.953c-.5-.022-.883-.053-1.262-.053-2.729,0-5.458.007-8.186-.005a3.185,3.185,0,1,1-.005-6.359c2.729-.016,5.457-.006,8.186-.007h1.273V184.27c0-2.765-.012-5.529,0-8.294a3.178,3.178,0,1,1,6.354-.014c.023,2.764.007,5.529.009,8.294v1.275h1.788c2.587,0,5.174-.014,7.76.006a3.18,3.18,0,1,1,.017,6.358c-2.764.022-5.528.006-8.292.007h-1.273v2.11c0,2.481.016,4.962-.005,7.443a3.181,3.181,0,1,1-6.361.011c-.021-2.764-.006-5.529-.007-8.294C623.572,192.792,623.573,192.414,623.573,191.953Z" transform="translate(-610.754 -172.706)" fill="#41a19c"/>
    </g>
  </g>
</svg>
