 <svg xmlns="http://www.w3.org/2000/svg" width="21.994" height="21.994" viewBox="0 0 21.994 21.994">
                                            <path id="instagram" d="M14.663,11A3.667,3.667,0,0,0,11,7.331,3.667,3.667,0,0,0,7.331,11,3.667,3.667,0,0,0,11,14.663,3.667,3.667,0,0,0,14.663,11Zm1.976,0A5.622,5.622,0,0,1,11,16.639,5.622,5.622,0,0,1,5.356,11,5.622,5.622,0,0,1,11,5.356,5.622,5.622,0,0,1,16.639,11Zm1.546-5.871a1.317,1.317,0,1,1-2.248-.93,1.317,1.317,0,0,1,2.248.93ZM11,1.976,9.9,1.968q-1-.007-1.511,0t-1.382.043a11.292,11.292,0,0,0-1.475.143,5.691,5.691,0,0,0-1.023.266A3.745,3.745,0,0,0,2.42,4.511a5.746,5.746,0,0,0-.265,1.024,11.292,11.292,0,0,0-.143,1.475q-.035.866-.043,1.382t0,1.511q.007,1,.007,1.1t-.007,1.1q-.007,1,0,1.511t.043,1.382a11.292,11.292,0,0,0,.143,1.475,5.712,5.712,0,0,0,.265,1.023,3.745,3.745,0,0,0,2.091,2.091,5.746,5.746,0,0,0,1.024.265,11.293,11.293,0,0,0,1.475.143q.866.035,1.382.043t1.511,0l1.1-.007,1.1.007q1,.007,1.511,0t1.382-.043a11.291,11.291,0,0,0,1.475-.143,5.747,5.747,0,0,0,1.024-.265,3.745,3.745,0,0,0,2.091-2.091,5.746,5.746,0,0,0,.265-1.024,11.292,11.292,0,0,0,.143-1.475q.035-.866.043-1.382t0-1.511q-.007-1-.007-1.1t.007-1.1q.007-1,0-1.511t-.043-1.382a11.291,11.291,0,0,0-.143-1.475,5.636,5.636,0,0,0-.266-1.023A3.745,3.745,0,0,0,17.484,2.42a5.746,5.746,0,0,0-1.024-.265,11.292,11.292,0,0,0-1.475-.143q-.866-.035-1.382-.043t-1.511,0L11,1.976Zm11,9.021q0,3.279-.071,4.539a6.717,6.717,0,0,1-1.775,4.611,6.717,6.717,0,0,1-4.611,1.775q-1.26.071-4.539.071t-4.539-.071a6.717,6.717,0,0,1-4.611-1.775A6.716,6.716,0,0,1,.071,15.536Q0,14.276,0,11T.071,6.458A6.716,6.716,0,0,1,1.847,1.847,6.716,6.716,0,0,1,6.458.071Q7.718,0,11,0t4.539.071a6.716,6.716,0,0,1,4.611,1.775,6.717,6.717,0,0,1,1.775,4.611Q21.994,7.718,21.994,11Z" fill="#007ba7"/>
                                          </svg>