<svg xmlns="http://www.w3.org/2000/svg" width="43.218" height="29.841" viewBox="0 0 43.218 29.841">
  <g id="language" transform="translate(-1081.133 -434.252)">
    <path id="Path_3198" data-name="Path 3198" d="M1094.009,437.982a13.032,13.032,0,0,1,6.287,1.334.367.367,0,0,0,.526-.135,12.972,12.972,0,0,1,7.26-4.517,14.087,14.087,0,0,1,11.1,1.829,10.673,10.673,0,0,1,4.539,5.526,9.844,9.844,0,0,1-1.518,9.639,12.35,12.35,0,0,1-7.188,4.554c-1.007.244-2.056.317-3.084.478a1.053,1.053,0,0,0-.437.171c-1.4,1.006-2.8,2.023-4.2,3.032-.218.157-.453.291-.682.433a.572.572,0,0,1-.682-.019.656.656,0,0,1-.312-.668c.163-1.1.333-2.2.482-3.307.1-.773.241-.564-.477-.9s-.71-.314-1.238.288a13.172,13.172,0,0,1-4.654,3.421c-.435.191-.413.126-.351.58q.236,1.722.465,3.445c.007.053.012.107.017.161a.644.644,0,0,1-.321.663.628.628,0,0,1-.733-.038q-1.623-1.16-3.248-2.317-.748-.53-1.512-1.036a2.415,2.415,0,0,0-1.144-.344c-4.142-.394-7.632-2.024-10.024-5.544A9.953,9.953,0,0,1,1084.1,442a13.512,13.512,0,0,1,8.027-3.988,2.8,2.8,0,0,1,.377-.027C1093,437.98,1093.506,437.982,1094.009,437.982Zm4.146,23.722c-.036-.276-.064-.471-.087-.666-.08-.668-.175-1.336-.232-2.006a.865.865,0,0,1,.555-.9c.179-.083.361-.16.544-.235a10.753,10.753,0,0,0,4.495-3.339,8.4,8.4,0,0,0,1.456-8.347,9.556,9.556,0,0,0-4.116-4.911,12.448,12.448,0,0,0-9.395-1.655,11.138,11.138,0,0,0-6.556,3.716,8.5,8.5,0,0,0-2.088,7.185,8.946,8.946,0,0,0,3.163,5.4,12.117,12.117,0,0,0,7.16,2.862,3.527,3.527,0,0,1,2.087.725c.583.478,1.219.89,1.832,1.33C1097.344,461.129,1097.717,461.392,1098.156,461.7Zm9.2-3.743.073.029c.117-.081.234-.161.349-.243,1.018-.724,2.027-1.461,3.06-2.163a2.213,2.213,0,0,1,.867-.323c.726-.119,1.467-.15,2.19-.284a11.234,11.234,0,0,0,7.178-4.253,8.4,8.4,0,0,0,1.768-6.116,8.7,8.7,0,0,0-3.266-6,12.477,12.477,0,0,0-11.585-2.414,11.315,11.315,0,0,0-5.774,3.59c-.34.384-.328.376.061.724.6.538,1.233,1.053,1.779,1.646a9.862,9.862,0,0,1,2.553,9.14,16.521,16.521,0,0,1-.784,2.26c-.073.2-.049.321.146.412.212.1.416.212.628.31,1.073.494,1.183.7,1.012,1.877C1107.523,456.755,1107.439,457.358,1107.354,457.961Z" transform="translate(0 0)" fill="#007ba7"/>
    <path id="Path_3199" data-name="Path 3199" d="M1111.744,473.824c-.569-.1-1.108-.2-1.644-.306a1.825,1.825,0,0,1-.406-.142.676.676,0,0,1-.4-.771.635.635,0,0,1,.7-.536c.554.052,1.106.133,1.655.223a.35.35,0,0,0,.45-.294,9.355,9.355,0,0,1,.3-.922.643.643,0,0,1,.795-.43.7.7,0,0,1,.55.757,2.719,2.719,0,0,1-.066.4c-.026.128-.06.255-.108.46.434-.062.815-.1,1.187-.173.888-.183,1.772-.39,2.659-.577a1.561,1.561,0,0,1,.558-.035.7.7,0,0,1,.569.637.652.652,0,0,1-.483.7c-.62.183-1.244.361-1.877.482-.846.162-1.7.273-2.555.394-.222.032-.371.1-.392.35-.031.373-.076.745-.12,1.159.328-.071.593-.138.862-.184.318-.055.639-.1.96-.132.352-.035.479-.121.589-.449.015-.043.026-.086.043-.128a.756.756,0,0,1,.875-.506.725.725,0,0,1,.5.869c-.076.321.065.4.321.481a3.2,3.2,0,0,1,.75,5.823,5.821,5.821,0,0,1-2.475.934.69.69,0,0,1-.41-1.316,3.929,3.929,0,0,1,.665-.21,4.244,4.244,0,0,0,1.6-.752,1.7,1.7,0,0,0,.048-2.688,4.015,4.015,0,0,0-.839-.466c-.194-.094-.307-.019-.412.19a9.548,9.548,0,0,1-3.144,3.864,4.163,4.163,0,0,1-1.966.666,2.277,2.277,0,0,1-2.122-2.965,3.814,3.814,0,0,1,1.516-1.774c.283-.19.583-.354.881-.522a.542.542,0,0,0,.3-.5C1111.677,474.9,1111.715,474.361,1111.744,473.824Zm.036,3.549-.108-.056c-.4.366-.824.71-1.193,1.106a.752.752,0,0,0-.069.908.69.69,0,0,0,.762.39,5.267,5.267,0,0,0,.988-.378.252.252,0,0,0,.107-.217C1112.115,478.539,1111.945,477.957,1111.78,477.373Zm2.909-.969-.073-.078c-.411.121-.823.238-1.231.366-.054.017-.132.1-.127.14.055.426.126.85.192,1.275l.094.007A8.393,8.393,0,0,0,1114.689,476.4Z" transform="translate(-20.817 -27.329)" fill="#007ba7"/>
    <path id="Path_3200" data-name="Path 3200" d="M1194.14,464.781c-.4,0-.809.009-1.213,0a.268.268,0,0,0-.305.222c-.234.7-.478,1.393-.726,2.086a1.562,1.562,0,0,1-.187.356.57.57,0,0,1-.743.179.6.6,0,0,1-.417-.693c.353-1.188.7-2.379,1.087-3.554.6-1.814,1.242-3.618,1.874-5.422a.653.653,0,0,1,1.211-.02c.486,1.4,1,2.79,1.469,4.194.5,1.49.962,2.992,1.439,4.489a2.118,2.118,0,0,1,.062.289.554.554,0,0,1-.415.73.609.609,0,0,1-.812-.327c-.3-.741-.563-1.495-.822-2.25-.069-.2-.146-.292-.371-.28C1194.9,464.8,1194.517,464.781,1194.14,464.781Zm.046-4.035-.1-.008-.872,2.574h1.84Z" transform="translate(-82.203 -17.49)" fill="#007ba7"/>
  </g>
</svg>
