<svg xmlns="http://www.w3.org/2000/svg" width="20.073" height="20.072" viewBox="0 0 20.073 20.072"><path d="M4.269,19.073H.315V6.339H4.269ZM2.29,4.6A2.3,2.3,0,1,1,4.58,2.291,2.309,2.309,0,0,1,2.29,4.6ZM19.068,19.073H15.123v-6.2c0-1.477-.03-3.372-2.056-3.372-2.056,0-2.371,1.605-2.371,3.265v6.305H6.746V6.339h3.792V8.076h.055A4.155,4.155,0,0,1,14.335,6.02c4,0,4.738,2.635,4.738,6.058v6.995Z" transform="translate(0.5 0.499)" fill="#0076b4" stroke="rgba(0,0,0,0)" stroke-miterlimit="10" stroke-width="1"/></svg>