  <svg xmlns="http://www.w3.org/2000/svg" width="22.618" height="21.064" viewBox="0 0 22.618 21.064">
                                            <path id="linkedIn" d="M1523.747,16a2.075,2.075,0,0,1,1.656.7,2.753,2.753,0,0,1,.645,1.746,2.378,2.378,0,0,1-2.535,2.457h-.027a2.4,2.4,0,0,1-1.824-.709,2.455,2.455,0,0,1-.671-1.748,2.28,2.28,0,0,1,.741-1.753A2.854,2.854,0,0,1,1523.747,16Zm-2.461,6.839h4.836V37.065h-4.836Zm22.321,6.068v8.156h-4.834V29.458a4.259,4.259,0,0,0-.568-2.333,2.072,2.072,0,0,0-1.893-.878,2.349,2.349,0,0,0-1.624.541,3.2,3.2,0,0,0-.878,1.191,2.112,2.112,0,0,0-.114.526c-.018.19-.027.4-.027.614v7.949H1528.8q.031-3.612.032-6.618V25.625c0-.7-.007-1.3-.018-1.793s-.014-.823-.014-.99h4.865v2.015l-.026.057h.026v-.057a5.724,5.724,0,0,1,.58-.778,4.348,4.348,0,0,1,.87-.757,4.788,4.788,0,0,1,1.243-.577,5.612,5.612,0,0,1,1.677-.228,6.392,6.392,0,0,1,2.207.377,4.486,4.486,0,0,1,1.771,1.186,5.681,5.681,0,0,1,1.17,1.995A8.5,8.5,0,0,1,1543.608,28.909Z" transform="translate(-1520.99 -16.002)" fill="#007ba7"/>
                                          </svg>