<svg xmlns="http://www.w3.org/2000/svg" width="22.463" height="30.999" viewBox="0 0 22.463 30.999">
  <g id="location" transform="translate(-738.406 -295.94)">
    <path id="Path_3146" data-name="Path 3146" d="M749.74,295.941a11.107,11.107,0,0,1,10.6,14.452c-1.411,4.46-4.03,8.273-6.685,12.054q-1.326,1.888-2.733,3.718c-.738.962-1.739,1.05-2.423.137-3.551-4.741-7.059-9.5-9.282-15.076A11.178,11.178,0,0,1,749.74,295.941Zm-.066,29.865c1.472-2.046,2.876-3.912,4.187-5.842a38.725,38.725,0,0,0,5.3-9.924,9.286,9.286,0,0,0-2.321-9.788,9.493,9.493,0,0,0-9.714-2.735c-5.928,1.511-8.935,7.558-6.668,13.439C742.557,316.4,746.084,320.975,749.674,325.806Z" transform="translate(0 0)" fill="#007ba7"/>
    <path id="Path_3147" data-name="Path 3147" d="M766.81,317.774a6.118,6.118,0,1,1-6.192,6.1A6.123,6.123,0,0,1,766.81,317.774Zm-.073,10.971a4.832,4.832,0,0,0,4.875-4.8,4.877,4.877,0,1,0-4.875,4.8Z" transform="translate(-17.086 -16.795)" fill="#007ba7"/>
  </g>
</svg>
