<svg xmlns="http://www.w3.org/2000/svg" xmlns:xlink="http://www.w3.org/1999/xlink" width="68" height="68" viewBox="0 0 68 68">
  <defs>
    <filter id="Ellipse_134" x="0" y="0" width="68" height="68" filterUnits="userSpaceOnUse">
      <feOffset dy="3" input="SourceAlpha"/>
      <feGaussianBlur stdDeviation="5" result="blur"/>
      <feFlood flood-opacity="0.059"/>
      <feComposite operator="in" in2="blur"/>
      <feComposite in="SourceGraphic"/>
    </filter>
  </defs>
  <g id="mail" transform="translate(15 12)">
    <g transform="matrix(1, 0, 0, 1, -15, -12)" filter="url(#Ellipse_134)">
      <circle id="Ellipse_134-2" data-name="Ellipse 134" cx="19" cy="19" r="19" transform="translate(15 12)" fill="#fff"/>
    </g>
    <g id="Group_553" data-name="Group 553" transform="translate(10.055 12.777)" opacity="0.58">
      <path id="Path_3139" data-name="Path 3139" d="M783.14,283.985c.162.074.263.117.36.166q3.992,1.994,7.981,3.994a.628.628,0,0,0,.634,0q3.986-2.006,7.981-3.994c.1-.049.2-.092.343-.159.008.154.017.261.017.368,0,2.8,0,5.607.007,8.41,0,.3-.083.379-.379.378q-8.285-.013-16.57,0c-.294,0-.383-.074-.382-.377.012-2.814.007-5.628.007-8.441Z" transform="translate(-783.133 -280.133)" fill="#333"/>
      <path id="Path_3140" data-name="Path 3140" d="M791.829,266.02c2.752,0,5.5,0,8.256-.006.289,0,.4.063.385.373-.025.617-.013,1.237,0,1.855a.34.34,0,0,1-.221.356c-2.737,1.363-5.469,2.735-8.208,4.092a.62.62,0,0,1-.482-.007c-2.721-1.348-5.434-2.711-8.153-4.063a.4.4,0,0,1-.261-.426c.015-.577.005-1.155,0-1.732,0-.441,0-.441.427-.441Z" transform="translate(-783.139 -266.014)" fill="#333"/>
    </g>
  </g>
</svg>
