<svg xmlns="http://www.w3.org/2000/svg" width="34.972" height="25.407" viewBox="0 0 34.972 25.407">
  <g id="money" transform="translate(-829.349 -242.086)">
    <path id="Path_3150" data-name="Path 3150" d="M859.095,246.05c.544-.083,1.045-.158,1.545-.237a.6.6,0,0,1,.775.556l.605,3.753h1.51c.608,0,.789.182.79.794q0,7.875,0,15.75c0,.659-.168.827-.82.827H835.112a.718.718,0,0,1-.847-.617q-2.43-7.558-4.857-15.118c-.152-.472-.021-.714.479-.875q8.96-2.879,17.92-5.755l9.176-2.945c.647-.208.84-.108,1.049.547Zm-20.028,20.261h20.485a4.306,4.306,0,0,1,3.592-3.59v-7.848a4.233,4.233,0,0,1-3.581-3.575h-20.5a4.272,4.272,0,0,1-3.576,3.591v7.836C837.579,263.248,838.456,264.128,839.067,266.311Zm21.275-19.276-19.091,3.037,0,.025h19.579Zm-3.318-3.646-18.159,5.829.017.059,19.063-3.039ZM833,251.383l1.252,7.873.038-.008v-8.064Zm-2.34.471,2.311,7.229.069-.017-1.206-7.593Zm30.1-.561a2.9,2.9,0,0,0,2.393,2.379v-2.379Zm2.4,12.647c-1.1.061-2.45,1.421-2.363,2.37h2.363Zm-27.67-12.649v2.382a2.872,2.872,0,0,0,2.36-2.382Zm2.385,15.021c-.248-1.249-1.518-2.476-2.385-2.333v2.333Z" transform="translate(0 0)" fill="#007ba7"/>
    <path id="Path_3151" data-name="Path 3151" d="M1090.033,418.758a7.752,7.752,0,0,1-.963,3.855,4.721,4.721,0,0,1-.726.947,2.475,2.475,0,0,1-3.71-.018,5.478,5.478,0,0,1-1.417-2.791,8.362,8.362,0,0,1,.5-5.444,5,5,0,0,1,.866-1.279,2.5,2.5,0,0,1,3.891.04,6.08,6.08,0,0,1,1.439,3.337C1089.979,417.851,1089.994,418.306,1090.033,418.758Zm-1.162,0a7.532,7.532,0,0,0-.451-2.566,3.632,3.632,0,0,0-.993-1.53,1.27,1.27,0,0,0-1.814-.017,3.628,3.628,0,0,0-.855,1.156,7.117,7.117,0,0,0,0,5.9,3.634,3.634,0,0,0,.852,1.159,1.236,1.236,0,0,0,1.829-.033,4.348,4.348,0,0,0,.792-1.088A6.68,6.68,0,0,0,1088.871,418.753Z" transform="translate(-237.19 -159.943)" fill="#007ba7"/>
    <path id="Path_3152" data-name="Path 3152" d="M981.633,467.716c.3,0,.605-.012.907,0A1.95,1.95,0,0,1,984.4,469.6a1.921,1.921,0,0,1-1.768,2.027,14.01,14.01,0,0,1-2,0,1.922,1.922,0,0,1-1.749-2.012,1.953,1.953,0,0,1,1.849-1.894C981.029,467.7,981.331,467.717,981.633,467.716Zm.035,2.782c.248,0,.5.009.743,0a.8.8,0,0,0,.821-.815.784.784,0,0,0-.819-.813c-.516-.015-1.034-.016-1.551,0a.794.794,0,0,0-.824.811.805.805,0,0,0,.821.817C981.13,470.509,981.4,470.5,981.669,470.5Z" transform="translate(-139.835 -210.999)" fill="#007ba7"/>
    <path id="Path_3153" data-name="Path 3153" d="M1211.659,467.2a8.366,8.366,0,0,1,1.315.121,1.958,1.958,0,0,1-.357,3.832,14.953,14.953,0,0,1-2.006-.005,1.929,1.929,0,0,1-1.748-2.016,1.955,1.955,0,0,1,1.855-1.891c.312-.016.626,0,.939,0Zm-.035,1.188c-.269,0-.539-.014-.807,0a.812.812,0,0,0,0,1.624c.538.021,1.077.02,1.615,0a.813.813,0,0,0,0-1.625C1212.164,468.376,1211.894,468.389,1211.625,468.39Z" transform="translate(-354.91 -210.522)" fill="#007ba7"/>
    <path id="Path_3154" data-name="Path 3154" d="M1118.712,455.81c.176.044.315.069.448.112.394.128.414.2.271.585-.084.229-.185.258-.411.164a1.429,1.429,0,0,0-.686-.116.584.584,0,0,0-.413.315c-.038.112.1.345.219.436a4.324,4.324,0,0,0,.693.342,1.253,1.253,0,0,1,.78,1.55,1.327,1.327,0,0,1-.96.863c0,.1,0,.192,0,.288,0,.377-.162.508-.515.376-.08-.03-.145-.219-.142-.332.008-.225-.051-.338-.292-.358a1.847,1.847,0,0,1-.43-.133c-.237-.083-.295-.217-.2-.472.105-.294.209-.34.509-.214a1.9,1.9,0,0,0,.874.1.528.528,0,0,0,.36-.343.638.638,0,0,0-.187-.469,1.68,1.68,0,0,0-.471-.272c-.181-.095-.374-.169-.547-.278a1.106,1.106,0,0,1,.16-1.987.332.332,0,0,0,.257-.4c-.032-.247.04-.375.33-.374s.394.106.357.383A1.927,1.927,0,0,0,1118.712,455.81Z" transform="translate(-269.031 -199.291)" fill="#007ba7"/>
  </g>
</svg>
