<svg xmlns="http://www.w3.org/2000/svg" width="106" height="106" viewBox="0 0 106 106">
  <g id="job-details-ion" transform="translate(-656.666 -668.666)">
    <circle id="Ellipse_73" data-name="Ellipse 73" cx="53" cy="53" r="53" transform="translate(656.666 668.666)" fill="#007ba7"/>
    <g id="Group_380" data-name="Group 380" transform="translate(684.058 697.064)">
      <path id="Path_3117" data-name="Path 3117" d="M645.345,291V279.252a.628.628,0,0,0,.069-.134,4.588,4.588,0,0,1,4.851-3.775h9.764c0-.229,0-.393,0-.557,0-1.339-.015-2.679,0-4.017a2.708,2.708,0,0,1,2.725-2.762q8.311-.014,16.622,0a2.616,2.616,0,0,1,2.636,2.29,26.309,26.309,0,0,1,.066,2.756c.009.748,0,1.5,0,2.289h.6q4.671,0,9.34,0a4.577,4.577,0,0,1,4.745,4.749q0,5.148,0,10.3v.577H646.043C645.811,290.966,645.578,290.99,645.345,291Zm18.413-19.3v3.6h14.608v-3.6Z" transform="translate(-645.345 -268)" fill="#fff"/>
      <path id="Path_3118" data-name="Path 3118" d="M645.345,321.573V307.11h19.284c0,1.556-.006,3.042,0,4.53a1.828,1.828,0,0,0,1.852,1.895q4.568.015,9.137,0a1.83,1.83,0,0,0,1.863-1.886c.01-1.339,0-2.677,0-4.016,0-.162.014-.323.022-.488h19.261v.479q0,6.6,0,13.2a4.566,4.566,0,0,1-4.636,4.653q-21.084.009-42.169,0a4.535,4.535,0,0,1-3.527-1.627A5.4,5.4,0,0,1,645.345,321.573Z" transform="translate(-645.345 -281.395)" fill="#fff"/>
      <path id="Path_3119" data-name="Path 3119" d="M686.2,310.79h-7.272v-3.624H686.2Z" transform="translate(-656.848 -281.414)" fill="#fff"/>
    </g>
  </g>
</svg>
