<svg xmlns="http://www.w3.org/2000/svg" width="31.119" height="31.163" viewBox="0 0 31.119 31.163">
  <g id="phone" transform="translate(-1022.951 -321.767)">
    <path id="Path_3195" data-name="Path 3195" d="M1040.188,348.2c.662-.67,1.292-1.314,1.928-1.951a3.154,3.154,0,0,1,1.715-.941,2.884,2.884,0,0,1,2.634.906c1.05,1.046,2.093,2.1,3.139,3.149.126.127.253.252.378.38a2.993,2.993,0,0,1,.1,4.3c-.238.266-.5.51-.751.766-.447.458-.9.915-1.337,1.378a4.813,4.813,0,0,1-3.815,1.529,13.127,13.127,0,0,1-4.82-1.216,29.38,29.38,0,0,1-11.483-9,26,26,0,0,1-4.257-7.6,10.648,10.648,0,0,1-.654-3.964,4.614,4.614,0,0,1,1.279-3.087c.752-.785,1.515-1.561,2.3-2.317a2.958,2.958,0,0,1,4.3,0q1.81,1.76,3.569,3.571a2.88,2.88,0,0,1,.8,3.05,3.237,3.237,0,0,1-.814,1.293c-.608.614-1.218,1.226-1.837,1.828a.228.228,0,0,0-.05.322,14.832,14.832,0,0,0,2.2,3.139,20.487,20.487,0,0,0,3.98,3.571C1039.155,347.622,1039.661,347.892,1040.188,348.2Zm-15.342-11.823c.034.348.051.7.1,1.043a12.909,12.909,0,0,0,1.172,3.6,27.957,27.957,0,0,0,12.984,13.269,13.508,13.508,0,0,0,4.74,1.506,3.149,3.149,0,0,0,2.935-1.11c.3-.365.662-.686.995-1.026s.665-.643.964-.994a1.032,1.032,0,0,0-.02-1.475c-.063-.073-.131-.143-.2-.211q-1.706-1.708-3.414-3.414a1.871,1.871,0,0,0-.236-.2.879.879,0,0,0-1.045-.048,2.978,2.978,0,0,0-.5.409c-.684.675-1.358,1.36-2.041,2.036a1.337,1.337,0,0,1-1.6.306,19.019,19.019,0,0,1-1.683-.922,22.008,22.008,0,0,1-4.874-4.3,15.24,15.24,0,0,1-2.539-3.844,1.47,1.47,0,0,1,.4-1.889q1.045-.992,2.054-2.022a1.043,1.043,0,0,0,0-1.663l-.078-.08q-1.416-1.428-2.833-2.855c-.247-.248-.495-.5-.764-.72a.962.962,0,0,0-1.22-.073,2.276,2.276,0,0,0-.379.31c-.625.618-1.229,1.258-1.87,1.859A3.14,3.14,0,0,0,1024.845,336.381Z" transform="translate(0 -4.79)" fill="#007ba7"/>
    <path id="Path_3196" data-name="Path 3196" d="M1080.581,335.026a.942.942,0,0,1-.818.982.924.924,0,0,1-1.062-.739,13.412,13.412,0,0,0-.784-2.812,14.053,14.053,0,0,0-10.733-8.784.965.965,0,0,1-.832-.734.937.937,0,0,1,.362-.988.913.913,0,0,1,.718-.168,15.386,15.386,0,0,1,6.214,2.481,15.93,15.93,0,0,1,6.908,10.567C1080.568,334.91,1080.576,334.991,1080.581,335.026Z" transform="translate(-26.511 0)" fill="#007ba7"/>
    <path id="Path_3197" data-name="Path 3197" d="M1074.849,343.713a.963.963,0,0,1-.854,1.006.933.933,0,0,1-1.036-.777,7.9,7.9,0,0,0-3.117-5.039,7.641,7.641,0,0,0-3.289-1.419.953.953,0,1,1,.3-1.879,9.83,9.83,0,0,1,7.967,7.894C1074.838,343.586,1074.845,343.676,1074.849,343.713Z" transform="translate(-26.137 -8.448)" fill="#007ba7"/>
  </g>
</svg>
