<svg xmlns="http://www.w3.org/2000/svg" xmlns:xlink="http://www.w3.org/1999/xlink" width="17.246" height="19.365" viewBox="0 0 17.246 19.365">
                                        <defs>
                                          <filter id="Vector" x="0" y="0" width="17.246" height="19.365" filterUnits="userSpaceOnUse">
                                            <feOffset dy="1" input="SourceAlpha"/>
                                            <feGaussianBlur stdDeviation="0.5" result="blur"/>
                                            <feFlood flood-opacity="0.161"/>
                                            <feComposite operator="in" in2="blur"/>
                                            <feComposite in="SourceGraphic"/>
                                          </filter>
                                        </defs>
                                        <g id="phone-auricular_1" data-name="phone-auricular 1" transform="translate(-0.746 -0.285)">
                                          <g id="Group">
                                            <g transform="matrix(1, 0, 0, 1, 0.75, 0.29)" filter="url(#Vector)">
                                              <path id="Vector-2" data-name="Vector" d="M14.049,13.608a.917.917,0,0,1,.166.328.883.883,0,0,1-.008.49.87.87,0,0,1-.276.42l-.639.538a4.162,4.162,0,0,1-.781.512,4.424,4.424,0,0,1-2.3.459,5.483,5.483,0,0,1-1.5-.318,6.923,6.923,0,0,1-1.462-.74A8.463,8.463,0,0,1,5.9,14.179q-.391-.348-.842-.808-.383-.392-.888-.947T3.112,11.176q-.558-.693-.918-1.225T1.617,9.06a6.548,6.548,0,0,1-.387-.73A8.558,8.558,0,0,1,.647,7.2a8.688,8.688,0,0,1-.4-1.155,7.155,7.155,0,0,1-.24-1.508A5.388,5.388,0,0,1,.125,3.1,4.458,4.458,0,0,1,.636,1.8,4.08,4.08,0,0,1,1.577.718L2.208.193A.894.894,0,0,1,2.531.029a.842.842,0,0,1,.484.013.849.849,0,0,1,.41.286l2.23,2.777a.9.9,0,0,1,.164.323.909.909,0,0,1-.005.5.832.832,0,0,1-.28.418L4.285,5.383a.988.988,0,0,0-.331.5,1.1,1.1,0,0,0,.189.974l3.772,4.717a1,1,0,0,0,.5.352,1.044,1.044,0,0,0,.566,0,1.023,1.023,0,0,0,.373-.195l1.25-1.037a.886.886,0,0,1,.32-.164.844.844,0,0,1,.481.014.866.866,0,0,1,.415.282Z" transform="translate(1.5 0.5)" fill="#007ba7"/>
                                            </g>
                                          </g>
                                        </g>
                                      </svg>