<svg xmlns="http://www.w3.org/2000/svg" xmlns:xlink="http://www.w3.org/1999/xlink" width="329.998" height="70.104" viewBox="0 0 329.998 70.104"><defs><clipPath id="a"><path d="M89.176,68.755a29.635,29.635,0,0,1-8.254-4c-5.455-3.776-8.643-7.9-14.161-16.307l-.448-.683c-4.211-6.412-7.066-9.931-9.852-12.145a16.533,16.533,0,0,0-10.33-3.559c-.272-.012-.54-.017-.8-.017a10.861,10.861,0,0,0-8.114,3.194C35,37.375,32.858,40.745,30.054,46.5c-.239.491-.9,1.861-1.294,2.68-.185.386-.33.686-.381.79C24.125,58.75,21.112,63.5,15.49,66.732a18.472,18.472,0,0,1-9.328,2.485A23.938,23.938,0,0,1,0,68.357V60.694a18.224,18.224,0,0,0,6.1,1.178c8.41,0,12.283-8.049,16.384-16.569.318-.66.645-1.342.973-2.014,2.1-4.306,4.629-9.2,8.119-12.775a18.416,18.416,0,0,1,13.81-5.808c.346,0,.7.008,1.054.023a25.789,25.789,0,0,1,9.111,1.97,25.053,25.053,0,0,1,6.936,4.45c4.058,3.606,7.184,8.367,10.206,12.972s6.143,9.356,10.152,12.845a23.122,23.122,0,0,0,6.846,4.21,24.314,24.314,0,0,0,9,1.594,38.541,38.541,0,0,0,7.642-.832A36.744,36.744,0,0,0,118.868,56.9a41.946,41.946,0,0,0,9.408-8.385c5.441-6.417,9.409-14.157,13.245-21.642,3.318-6.473,6.452-12.587,10.3-17.384A28.494,28.494,0,0,1,158.2,3.447,19.825,19.825,0,0,1,166.221.286,22.472,22.472,0,0,1,169.76,0a21.707,21.707,0,0,1,8.585,1.786,32.791,32.791,0,0,1,7.69,4.717c4.9,3.909,9.5,9.237,13.947,14.389,4.194,4.857,8.531,9.879,13.179,13.812a39.405,39.405,0,0,0,7.291,5,25.327,25.327,0,0,0,8.1,2.678,31.563,31.563,0,0,0,4.542.34c10.266,0,17.237-5.484,24.616-11.29a85.249,85.249,0,0,1,12.71-8.785,39.973,39.973,0,0,1,16.8-4.71c.515-.029,1.035-.044,1.548-.044,10.609,0,19.391,6.2,26.789,12.015.944.743,1.873,1.484,2.77,2.2a95.59,95.59,0,0,0,9.282,6.854c.83.506,1.624.944,2.389,1.317v7.911a27.762,27.762,0,0,1-4.1-1.767,54.693,54.693,0,0,1-7.667-5.061c-.921-.7-3.419-2.672-7.034-5.551l-.039-.032-.132-.105a67.7,67.7,0,0,0-12.036-7.952,22.8,22.8,0,0,0-10.129-2.5c-.4,0-.817.012-1.229.035a30.779,30.779,0,0,0-11.677,2.8c-3.479,1.6-7.149,4-12.271,8-.033.026-3.124,2.455-4.009,3.138a62.188,62.188,0,0,1-13.136,8.185A31.762,31.762,0,0,1,233.534,50.1a41.558,41.558,0,0,1-6.038-.464,32.2,32.2,0,0,1-9.7-3.055,45.584,45.584,0,0,1-9.146-6.092c-4.425-3.708-7.851-7.435-13.854-14.386-.666-.772-1-1.162-1.327-1.536-5.741-6.637-9.839-10.744-13.288-13.317-3.65-2.723-6.809-3.938-10.246-3.938a15.967,15.967,0,0,0-2.555.212c-3.267.522-5.927,2.1-8.624,5.1-2.63,2.93-5.444,7.405-9.127,14.508-.063.122-.274.531-.568,1.1l-.025.049c-.948,1.844-2.712,5.277-3.37,6.533-5.108,9.741-8.961,15.52-13.743,20.613a47.49,47.49,0,0,1-10.947,8.76A44.192,44.192,0,0,1,107.8,69.124a45.874,45.874,0,0,1-9.115.98A32.742,32.742,0,0,1,89.176,68.755Z" fill="#fff"/></clipPath></defs><g transform="translate(0)" opacity="0.5"><path d="M89.176,68.755a29.635,29.635,0,0,1-8.254-4c-5.455-3.776-8.643-7.9-14.161-16.307l-.448-.683c-4.211-6.412-7.066-9.931-9.852-12.145a16.533,16.533,0,0,0-10.33-3.559c-.272-.012-.54-.017-.8-.017a10.861,10.861,0,0,0-8.114,3.194C35,37.375,32.858,40.745,30.054,46.5c-.239.491-.9,1.861-1.294,2.68-.185.386-.33.686-.381.79C24.125,58.75,21.112,63.5,15.49,66.732a18.472,18.472,0,0,1-9.328,2.485A23.938,23.938,0,0,1,0,68.357V60.694a18.224,18.224,0,0,0,6.1,1.178c8.41,0,12.283-8.049,16.384-16.569.318-.66.645-1.342.973-2.014,2.1-4.306,4.629-9.2,8.119-12.775a18.416,18.416,0,0,1,13.81-5.808c.346,0,.7.008,1.054.023a25.789,25.789,0,0,1,9.111,1.97,25.053,25.053,0,0,1,6.936,4.45c4.058,3.606,7.184,8.367,10.206,12.972s6.143,9.356,10.152,12.845a23.122,23.122,0,0,0,6.846,4.21,24.314,24.314,0,0,0,9,1.594,38.541,38.541,0,0,0,7.642-.832A36.744,36.744,0,0,0,118.868,56.9a41.946,41.946,0,0,0,9.408-8.385c5.441-6.417,9.409-14.157,13.245-21.642,3.318-6.473,6.452-12.587,10.3-17.384A28.494,28.494,0,0,1,158.2,3.447,19.825,19.825,0,0,1,166.221.286,22.472,22.472,0,0,1,169.76,0a21.707,21.707,0,0,1,8.585,1.786,32.791,32.791,0,0,1,7.69,4.717c4.9,3.909,9.5,9.237,13.947,14.389,4.194,4.857,8.531,9.879,13.179,13.812a39.405,39.405,0,0,0,7.291,5,25.327,25.327,0,0,0,8.1,2.678,31.563,31.563,0,0,0,4.542.34c10.266,0,17.237-5.484,24.616-11.29a85.249,85.249,0,0,1,12.71-8.785,39.973,39.973,0,0,1,16.8-4.71c.515-.029,1.035-.044,1.548-.044,10.609,0,19.391,6.2,26.789,12.015.944.743,1.873,1.484,2.77,2.2a95.59,95.59,0,0,0,9.282,6.854c.83.506,1.624.944,2.389,1.317v7.911a27.762,27.762,0,0,1-4.1-1.767,54.693,54.693,0,0,1-7.667-5.061c-.921-.7-3.419-2.672-7.034-5.551l-.039-.032-.132-.105a67.7,67.7,0,0,0-12.036-7.952,22.8,22.8,0,0,0-10.129-2.5c-.4,0-.817.012-1.229.035a30.779,30.779,0,0,0-11.677,2.8c-3.479,1.6-7.149,4-12.271,8-.033.026-3.124,2.455-4.009,3.138a62.188,62.188,0,0,1-13.136,8.185A31.762,31.762,0,0,1,233.534,50.1a41.558,41.558,0,0,1-6.038-.464,32.2,32.2,0,0,1-9.7-3.055,45.584,45.584,0,0,1-9.146-6.092c-4.425-3.708-7.851-7.435-13.854-14.386-.666-.772-1-1.162-1.327-1.536-5.741-6.637-9.839-10.744-13.288-13.317-3.65-2.723-6.809-3.938-10.246-3.938a15.967,15.967,0,0,0-2.555.212c-3.267.522-5.927,2.1-8.624,5.1-2.63,2.93-5.444,7.405-9.127,14.508-.063.122-.274.531-.568,1.1l-.025.049c-.948,1.844-2.712,5.277-3.37,6.533-5.108,9.741-8.961,15.52-13.743,20.613a47.49,47.49,0,0,1-10.947,8.76A44.192,44.192,0,0,1,107.8,69.124a45.874,45.874,0,0,1-9.115.98A32.742,32.742,0,0,1,89.176,68.755Z" transform="translate(0 0)" fill="#fff"/><g transform="translate(0 0)" clip-path="url(#a)"><rect width="231.565" height="124.338" transform="translate(0.325 -12.332)" fill="#fff"/></g></g></svg>