<svg xmlns="http://www.w3.org/2000/svg" xmlns:xlink="http://www.w3.org/1999/xlink" width="40" height="40" viewBox="0 0 40 40">
  <defs>
    <clipPath id="clip-path">
      <rect id="Rectangle_62" data-name="Rectangle 62" width="40" height="40" fill="none"/>
    </clipPath>
  </defs>
  <g id="Start_Hiring" data-name="Start Hiring" clip-path="url(#clip-path)">
    <rect id="Rectangle_61" data-name="Rectangle 61" width="40" height="40" fill="none"/>
    <g id="download_-_2022-10-03T155824.585" data-name="download - 2022-10-03T155824.585" transform="translate(-145.617 -145.604)">
      <path id="Path_4287" data-name="Path 4287" d="M176.935,258.629H146.917a.3.3,0,0,1-.3-.3V228.312a.3.3,0,0,1,.3-.3h23.414a.3.3,0,0,1,0,.6H147.217V258.03h29.418V234.916a.3.3,0,0,1,.6,0V258.33a.3.3,0,0,1-.3.3Z" transform="translate(0 -74.803)" fill="none" stroke="#fff" stroke-width="0.4"/>
      <path id="Path_4288" data-name="Path 4288" d="M238.114,300.009a2.7,2.7,0,1,1,2.7-2.7A2.7,2.7,0,0,1,238.114,300.009Zm0-4.8a2.095,2.095,0,1,0,1.486.613,2.1,2.1,0,0,0-1.486-.613Z" transform="translate(-81.592 -135.994)" fill="none" stroke="#fff" stroke-width="0.4"/>
      <path id="Path_4289" data-name="Path 4289" d="M221.906,375.807H213.5a.3.3,0,0,1-.3-.3v-3a3.907,3.907,0,0,1,3.9-3.9h1.2a3.907,3.907,0,0,1,3.9,3.9v3a.3.3,0,0,1-.3.3Zm-8.1-.6h7.8v-2.7a3.306,3.306,0,0,0-3.3-3.3h-1.2a3.306,3.306,0,0,0-3.3,3.3Z" transform="translate(-61.182 -203.987)" fill="none" stroke="#fff" stroke-width="0.4"/>
      <path id="Path_4290" data-name="Path 4290" d="M442.106,160.412a6.9,6.9,0,1,1,6.9-6.9,6.9,6.9,0,0,1-6.9,6.9Zm0-13.208a6.3,6.3,0,1,0,6.3,6.3,6.3,6.3,0,0,0-6.3-6.3Z" transform="translate(-265.171)" fill="none" stroke="#fff" stroke-width="0.4"/>
      <path id="Path_4291" data-name="Path 4291" d="M467.782,198.486a.287.287,0,0,1-.2-.083l-3.228-3.228a.286.286,0,0,1,0-.4l.807-.807a.286.286,0,0,1,.4,0l2.22,2.219,3.834-3.834a.287.287,0,0,1,.4,0l.807.807a.286.286,0,0,1,0,.4L467.98,198.4a.285.285,0,0,1-.2.085Zm-2.825-3.513,2.825,2.825,4.439-4.438-.4-.4-3.834,3.834a.286.286,0,0,1-.4,0l-2.22-2.219Z" transform="translate(-291.654 -41.795)" fill="none" stroke="#fff" stroke-width="0.4"/>
      <path id="Path_4292" data-name="Path 4292" d="M197.119,283.022H183.911a.3.3,0,0,1-.3-.3v-17.41a.3.3,0,0,1,.3-.3h13.208a.3.3,0,0,1,.3.3v4.2a.3.3,0,0,1-.6,0v-3.9H184.211v16.81h12.607v-5.1a.3.3,0,0,1,.6,0v5.4a.3.3,0,0,1-.3.3Z" transform="translate(-33.993 -108.801)" fill="none" stroke="#fff" stroke-width="0.4"/>
      <path id="Path_4293" data-name="Path 4293" d="M207.925,561.588H183.911a.3.3,0,1,1,0-.6h24.014a.3.3,0,1,1,0,.6Z" transform="translate(-33.993 -380.763)" fill="none" stroke="#fff" stroke-width="0.4"/>
      <path id="Path_4294" data-name="Path 4294" d="M391.511,428.4h-7.8a.3.3,0,0,1,0-.6h7.8a.3.3,0,0,1,0,.6Z" transform="translate(-217.577 -258.383)" fill="none" stroke="#fff" stroke-width="0.4"/>
      <path id="Path_4295" data-name="Path 4295" d="M391.511,391.4h-7.8a.3.3,0,0,1,0-.6h7.8a.3.3,0,1,1,0,.6Z" transform="translate(-217.577 -224.385)" fill="none" stroke="#fff" stroke-width="0.4"/>
      <path id="Path_4296" data-name="Path 4296" d="M391.511,354.4h-7.8a.3.3,0,0,1,0-.6h7.8a.3.3,0,1,1,0,.6Z" transform="translate(-217.577 -190.387)" fill="none" stroke="#fff" stroke-width="0.4"/>
      <path id="Path_4297" data-name="Path 4297" d="M391.511,317.4h-7.8a.3.3,0,0,1,0-.6h7.8a.3.3,0,0,1,0,.6Z" transform="translate(-217.577 -156.389)" fill="none" stroke="#fff" stroke-width="0.4"/>
      <path id="Path_4298" data-name="Path 4298" d="M391.511,525.8h-7.8a.3.3,0,0,1-.3-.3v-1.2a.3.3,0,0,1,.3-.3h7.8a.3.3,0,0,1,.3.3v1.2a.3.3,0,0,1-.3.3Zm-7.5-.6h7.2v-.6h-7.2Z" transform="translate(-217.577 -346.777)" fill="none" stroke="#fff" stroke-width="0.4"/>
      <path id="Path_4299" data-name="Path 4299" d="M346.7,342.6a.3.3,0,0,1-.3-.3v-3a.3.3,0,0,1,.6,0v3A.3.3,0,0,1,346.7,342.6Z" transform="translate(-183.575 -176.788)" fill="none" stroke="#fff" stroke-width="0.4"/>
    </g>
  </g>
</svg>
