<svg xmlns="http://www.w3.org/2000/svg" width="39.149" height="23.699" viewBox="0 0 39.149 23.699">
  <g id="qualification" transform="translate(-627.15 -670)">
    <path id="Path_3179" data-name="Path 3179" d="M658.9,678.871l-3.332.924q-4.192,1.163-8.384,2.323a1.967,1.967,0,0,1-1.074.006q-8.86-2.472-17.725-4.925a3.341,3.341,0,0,0-.372-.078,1.018,1.018,0,0,1-.862-.965,1.032,1.032,0,0,1,.792-1.028c.79-.2,1.581-.4,2.366-.619q8.063-2.236,16.125-4.472a1.185,1.185,0,0,1,.6.008q7.207,1.988,14.409,3.994c1.214.337,2.427.677,3.642,1.01a2.844,2.844,0,0,0,.35.028,1.026,1.026,0,0,1,.86.971,1.039,1.039,0,0,1-.771,1.02c-1.47.391-2.937.792-4.406,1.185a.185.185,0,0,0-.167.21c0,1.627,0,3.254.008,4.882a.356.356,0,0,0,.135.243,1.955,1.955,0,0,1,.093,3.183.257.257,0,0,0-.112.279q.441,2.591.873,5.184a.974.974,0,0,1-.356.889,2.108,2.108,0,0,1-1.217.545,2.576,2.576,0,0,1-1.988-.45,1.089,1.089,0,0,1-.445-1.146c.293-1.663.559-3.331.841-5a.287.287,0,0,0-.117-.318,1.956,1.956,0,0,1,.083-3.154.387.387,0,0,0,.161-.251c.009-1.469.006-2.937,0-4.406A.512.512,0,0,0,658.9,678.871Z" transform="translate(0 0)" fill="#007ba7"/>
    <path id="Path_3180" data-name="Path 3180" d="M645.241,691.94l2.359.664c2.449.689,4.895,1.386,7.349,2.055a1.84,1.84,0,0,0,.932-.014c3.131-.865,6.257-1.751,9.385-2.632.082-.023.166-.038.277-.063v.3c0,2.1-.016,4.192.008,6.287a2.354,2.354,0,0,1-.864,1.875,7.755,7.755,0,0,1-2.84,1.5,21.148,21.148,0,0,1-7.067.925,20.562,20.562,0,0,1-5.423-.788,8.693,8.693,0,0,1-3.031-1.439,4.856,4.856,0,0,1-.754-.787,1.641,1.641,0,0,1-.346-1.042q0-3.346,0-6.692C645.226,692.053,645.233,692.015,645.241,691.94Z" transform="translate(-8.659 -10.51)" fill="#007ba7"/>
  </g>
</svg>
