<svg xmlns="http://www.w3.org/2000/svg" xmlns:xlink="http://www.w3.org/1999/xlink" width="40" height="40" viewBox="0 0 40 40">
  <defs>
    <clipPath id="clip-Add_a_Job">
      <rect width="40" height="40"/>
    </clipPath>
  </defs>
  <g id="Add_a_Job" data-name="Add a Job" clip-path="url(#clip-Add_a_Job)">
    <rect width="40" height="40" fill="#e1e1e5"/>
    <g id="Group_2116" data-name="Group 2116" transform="translate(-111.257 -156.486)">
      <path id="Path_4274" data-name="Path 4274" d="M270.526,379.356a.572.572,0,0,1-.569-.574v-3.627a.572.572,0,1,1,1.143,0v3.482l.005.036a.852.852,0,0,1,.011.109.574.574,0,0,1-.574.574Z" transform="translate(-144.824 -197.203)" fill="#007aa6"/>
      <path id="Path_4275" data-name="Path 4275" d="M426.792,197.208a.572.572,0,0,1-.569-.574v-4.056h-4.056a.572.572,0,0,1,0-1.143h4.056v-4.056a.569.569,0,1,1,1.139,0v4.051h4.056a.574.574,0,0,1,0,1.148h-4.056v4.056A.572.572,0,0,1,426.792,197.208Z" transform="translate(-283.205 -25.846)" fill="#007aa6"/>
      <path id="Path_4276" data-name="Path 4276" d="M114.912,194.488a3.659,3.659,0,0,1-3.655-3.655V175.417a3.663,3.663,0,0,1,3.655-3.663h4.056v-2.516a3.659,3.659,0,0,1,3.655-3.655h6.17a3.659,3.659,0,0,1,3.655,3.655v2.516H136.5a3.614,3.614,0,0,1,1.072.166l1.236.384-.874-.954a7.67,7.67,0,1,1,2.11,1.619l-1.144-.593.687,1.09a3.653,3.653,0,0,1,.563,1.95v15.416a3.659,3.659,0,0,1-3.655,3.655Zm-2.513-3.654a2.512,2.512,0,0,0,2.511,2.507H136.5a2.514,2.514,0,0,0,2.516-2.507v-6.478l-.469.17a37.72,37.72,0,0,1-25.678,0l-.469-.17Zm2.513-17.932a2.516,2.516,0,0,0-2.511,2.516v7.715l.224.086a36.63,36.63,0,0,0,26.168,0l-.125-.676.346.35v-7.474A2.518,2.518,0,0,0,136.5,172.9Zm28.675-13.271a6.532,6.532,0,1,0,6.536,6.528A6.539,6.539,0,0,0,143.586,159.63Zm-20.965,7.1a2.512,2.512,0,0,0-2.511,2.507v2.516H131.3v-2.516a2.512,2.512,0,0,0-2.511-2.507Z" fill="#007aa6"/>
    </g>
  </g>
</svg>
