<svg xmlns="http://www.w3.org/2000/svg" width="40" height="40.002" viewBox="0 0 40 40.002"><g transform="translate(0 0)"><path d="M264.335,268.872a4.525,4.525,0,1,0-3.2-1.324A4.513,4.513,0,0,0,264.335,268.872Zm-2.38-6.905a3.366,3.366,0,1,1,0,4.76,3.355,3.355,0,0,1,0-4.76Z" transform="translate(-239.47 -239.48)" fill="#fff"/><path d="M224.1,224.227a7.424,7.424,0,0,0-1.591,8.185.581.581,0,1,0,1.069-.454,6.294,6.294,0,1,1,5.83,3.83h-.038A6.253,6.253,0,0,1,224.976,234a.581.581,0,1,0-.811.831,7.406,7.406,0,0,0,5.2,2.116h.045a7.453,7.453,0,1,0-5.314-12.723Z" transform="translate(-204.49 -204.617)" fill="#fff"/><path d="M38.89,22.225H36.806a12.124,12.124,0,0,0-1.637-3.956L36.642,16.8a1.122,1.122,0,0,0,0-1.586l-2.133-2.133a1.122,1.122,0,0,0-1.586,0L31.45,14.55a12.123,12.123,0,0,0-3.956-1.637V10.829a1.123,1.123,0,0,0-1.122-1.122H23.357a1.12,1.12,0,0,0-.866.41h-.383a9.906,9.906,0,0,0-1.27-3.069l1.126-1.126a1.02,1.02,0,0,0,0-1.441L20.24,2.757a1.019,1.019,0,0,0-1.441,0L17.673,3.883A9.9,9.9,0,0,0,14.6,2.613V1.019A1.02,1.02,0,0,0,13.585,0H11.148a1.02,1.02,0,0,0-1.019,1.019V2.613a9.908,9.908,0,0,0-3.069,1.27L5.933,2.757a1.019,1.019,0,0,0-1.441,0L2.769,4.48a1.02,1.02,0,0,0,0,1.441L3.9,7.048a9.906,9.906,0,0,0-1.27,3.069H1.031A1.02,1.02,0,0,0,.012,11.136v2.438a1.02,1.02,0,0,0,1.019,1.019H2.625A9.9,9.9,0,0,0,3.9,17.661L2.769,18.788a1.02,1.02,0,0,0,0,1.441l1.724,1.724a1.02,1.02,0,0,0,1.441,0L7.06,20.826a9.9,9.9,0,0,0,3.069,1.27v.383a1.12,1.12,0,0,0-.412.867v3.016a1.123,1.123,0,0,0,1.122,1.122h2.084A12.126,12.126,0,0,0,14.56,31.44l-1.472,1.472a1.122,1.122,0,0,0,0,1.586l2.133,2.133a1.122,1.122,0,0,0,1.586,0l1.472-1.472A12.122,12.122,0,0,0,22.235,36.8V38.88A1.123,1.123,0,0,0,23.357,40h3.016a1.123,1.123,0,0,0,1.122-1.122V36.8a12.123,12.123,0,0,0,3.956-1.637l1.472,1.473a1.122,1.122,0,0,0,1.586,0L36.642,34.5a1.122,1.122,0,0,0,0-1.586L35.169,31.44a12.125,12.125,0,0,0,1.637-3.956H38.89a1.123,1.123,0,0,0,1.122-1.122V23.346a1.123,1.123,0,0,0-1.122-1.122Zm-28.4-1.248a8.743,8.743,0,0,1-2.9-1.2,1.025,1.025,0,0,0-1.274.135L5.213,21.016,3.7,19.508,4.81,18.4a1.026,1.026,0,0,0,.134-1.274,8.742,8.742,0,0,1-1.2-2.9,1.026,1.026,0,0,0-1-.806H1.183V11.288H2.748a1.026,1.026,0,0,0,1-.806,8.742,8.742,0,0,1,1.2-2.9A1.025,1.025,0,0,0,4.81,6.306L3.7,5.2,5.213,3.693,6.318,4.8a1.025,1.025,0,0,0,1.274.134,8.742,8.742,0,0,1,2.9-1.2,1.026,1.026,0,0,0,.806-1V1.171h2.133V2.736a1.026,1.026,0,0,0,.806,1,8.745,8.745,0,0,1,2.9,1.2A1.025,1.025,0,0,0,18.415,4.8L19.52,3.693,21.028,5.2,19.923,6.306a1.025,1.025,0,0,0-.135,1.274,8.742,8.742,0,0,1,1.2,2.9,1.026,1.026,0,0,0,1,.806h.25v1.624a12.122,12.122,0,0,0-3.956,1.637l-1.473-1.473c-.017-.017-.036-.033-.055-.049A4.438,4.438,0,0,0,10.81,8.2a.586.586,0,0,0,.41,1.1A3.265,3.265,0,0,1,15.6,12.829a1.12,1.12,0,0,0-.376.248L13.088,15.21a1.118,1.118,0,0,0-.249.377,3.28,3.28,0,0,1-.472.035,3.269,3.269,0,0,1-2.851-4.866.586.586,0,0,0-1.021-.573,4.437,4.437,0,0,0,4.543,6.557c.017.019.033.038.051.056l1.472,1.473a12.125,12.125,0,0,0-1.637,3.956H11.3v-.252a1.026,1.026,0,0,0-.806-1Zm28.346,5.336H36.766a1.129,1.129,0,0,0-1.1.888,10.957,10.957,0,0,1-1.5,3.637,1.129,1.129,0,0,0,.148,1.4l1.466,1.466-2.062,2.062L32.25,34.3a1.129,1.129,0,0,0-1.4-.148,10.958,10.958,0,0,1-3.637,1.5,1.129,1.129,0,0,0-.888,1.1V38.83H23.406V36.755a1.129,1.129,0,0,0-.888-1.1,10.957,10.957,0,0,1-3.637-1.5,1.129,1.129,0,0,0-1.4.148l-1.466,1.466-2.062-2.062,1.466-1.466a1.129,1.129,0,0,0,.148-1.4,10.957,10.957,0,0,1-1.5-3.637,1.129,1.129,0,0,0-1.1-.888H10.889V23.4h2.075a1.129,1.129,0,0,0,1.1-.888,10.957,10.957,0,0,1,1.5-3.637,1.129,1.129,0,0,0-.148-1.4L13.951,16l2.062-2.062,1.466,1.466a1.129,1.129,0,0,0,1.4.148,10.958,10.958,0,0,1,3.637-1.5,1.129,1.129,0,0,0,.888-1.1V10.878h2.917v2.075a1.129,1.129,0,0,0,.888,1.1,10.957,10.957,0,0,1,3.637,1.5,1.129,1.129,0,0,0,1.4-.148l1.466-1.466L35.778,16l-1.466,1.466a1.129,1.129,0,0,0-.148,1.4,10.958,10.958,0,0,1,1.5,3.637,1.129,1.129,0,0,0,1.1.888h2.075v2.917Z" transform="translate(-0.012 0)" fill="#fff"/></g></svg>