<svg xmlns="http://www.w3.org/2000/svg" width="32.001" height="32" viewBox="0 0 32.001 32">
  <path id="tick" d="M493.869,1127.88a16,16,0,1,1-15.992-16.008A15.987,15.987,0,0,1,493.869,1127.88Zm-18.433,2.039c-.053-.047-.083-.071-.11-.1-.8-.8-1.6-1.6-2.4-2.4a4.463,4.463,0,0,0-.7-.627,1.691,1.691,0,0,0-2.286.447,1.72,1.72,0,0,0,.181,2.264q.617.613,1.23,1.229c.961.96,1.915,1.926,2.884,2.878a1.682,1.682,0,0,0,2.374,0q1.446-1.436,2.882-2.88,2.084-2.083,4.168-4.167c.671-.671,1.345-1.34,2.009-2.019a1.6,1.6,0,0,0,.429-1.513,1.667,1.667,0,0,0-1.218-1.317,1.623,1.623,0,0,0-1.7.445q-1.955,1.945-3.9,3.9-1.445,1.445-2.89,2.89C476.073,1129.268,475.762,1129.588,475.437,1129.918Z" transform="translate(-461.868 -1111.872)" fill="#34a853"/>
</svg>
