<svg xmlns="http://www.w3.org/2000/svg" width="116.329" height="76.757" viewBox="0 0 116.329 76.757"><path d="M.6,95.527c7.3-6.151,13.456-13.456,19.992-20.376C24.055,71.5,29.437,64.194,35.2,63.81c.384-.577.961-.961,2.307-.769a2.086,2.086,0,0,1,1.538,1.538c1.153,4.421.961,9.035.961,13.648,16.916-2.307,36.716,6.151,50.172,15.186,14.8,9.8,26.336,26.143,26.144,44.4a1.439,1.439,0,0,1-1.153,1.346,1.755,1.755,0,0,1-2.115.384c-22.3-15.763-45.559-29.6-73.817-24.8h-.192c1.73,5.575,1.922,11.918,1.922,17.685a2.168,2.168,0,0,1-2.691,2.115,1.927,1.927,0,0,1-2.883.384C22.709,124.362,8.869,112.444.411,98.027A1.812,1.812,0,0,1,.6,95.527Zm6.344,5.19c3.268,4.806,7.5,9.035,11.726,13.264,5.767,5.767,12.3,10.765,17.877,16.724,0-5.19.192-10.38-.192-15.763a1.162,1.162,0,0,1,.577-1.153c-.577-1.153-.384-2.691,1.153-3.076,27.874-5.959,53.633,7.3,75.162,24.221-2.883-16.916-12.879-29.6-27.3-39.215S56.542,84.186,40.01,82.263v.192c.192,1.538-2.307,1.73-2.691.384,0-.384-.192-.577-.192-.961-1.153-.577-1.538-2.115-.577-2.691-.577-3.076-.769-6.151-1.153-9.227a15.956,15.956,0,0,0-.385-2.5c-2.5,3.268-6.728,6.151-9.612,9.035C19.826,82.263,14.636,88.415,8.869,94.182,5.793,96.873,4.448,96.873,6.947,100.718Z" transform="translate(0.001 -62.991)" fill="#fff"/></svg>