<svg xmlns="http://www.w3.org/2000/svg" width="26" height="21.125" viewBox="0 0 26 21.125">
  <path id="twitter" d="M26,4.493a9.842,9.842,0,0,1-3.034.868,5.765,5.765,0,0,0,2.382-2.928,9.885,9.885,0,0,1-3.356,1.3A5.672,5.672,0,0,0,17.985,2a5.316,5.316,0,0,0-5.311,5.307,4.008,4.008,0,0,0,.11,1.193A14.82,14.82,0,0,1,1.841,2.973a4.663,4.663,0,0,0-.757,2.708,5.432,5.432,0,0,0,2.382,4.443,7.7,7.7,0,0,1-2.382-.652v.11a5.258,5.258,0,0,0,4.223,5.2A5.563,5.563,0,0,1,3.9,15a2.97,2.97,0,0,1-.978-.11,5.142,5.142,0,0,0,4.985,3.686A10.831,10.831,0,0,1,1.3,20.848,5.39,5.39,0,0,1,0,20.743a15.179,15.179,0,0,0,8.125,2.382c9.86,0,15.167-8.125,15.167-15.167V7.307A11.123,11.123,0,0,0,26,4.493" transform="translate(0 -2)" fill="#00dfef"/>
</svg>
