<svg xmlns="http://www.w3.org/2000/svg" width="35.732" height="35.732" viewBox="0 0 35.732 35.732">
  <path id="web" d="M17.866,0A17.866,17.866,0,1,0,35.732,17.866,17.866,17.866,0,0,0,17.866,0ZM33.318,24.125,28.237,25a26.661,26.661,0,0,0,.935-6.54h5.355a16.565,16.565,0,0,1-1.209,5.663ZM1.206,18.462H6.561A26.662,26.662,0,0,0,7.5,25l-5.081-.877a16.565,16.565,0,0,1-1.209-5.663Zm1.209-6.855L7.5,10.73a26.661,26.661,0,0,0-.935,6.54H1.206a16.565,16.565,0,0,1,1.209-5.663ZM18.462,9.562a40.969,40.969,0,0,1,6.384.583l2.1.363a25.563,25.563,0,0,1,1.033,6.763h-9.52Zm6.587-.591a42.214,42.214,0,0,0-6.587-.6V1.225c3.414.328,6.38,3.454,8.061,8Zm-7.778-.6a42.206,42.206,0,0,0-6.587.6L9.21,9.226c1.681-4.551,4.647-7.678,8.061-8Zm-6.384,1.774a40.959,40.959,0,0,1,6.384-.583v7.709H7.751a25.563,25.563,0,0,1,1.033-6.763ZM7.751,18.462h9.52V26.17a40.969,40.969,0,0,1-6.384-.583l-2.1-.363a25.563,25.563,0,0,1-1.033-6.763Zm2.932,8.3a42.356,42.356,0,0,0,6.587.6v7.146c-3.414-.328-6.38-3.454-8.061-8Zm7.778.6a42.351,42.351,0,0,0,6.587-.6l1.474-.255c-1.681,4.551-4.647,7.678-8.061,8Zm6.384-1.777a40.958,40.958,0,0,1-6.384.583V18.462h9.52a25.563,25.563,0,0,1-1.033,6.763Zm4.326-8.317a26.662,26.662,0,0,0-.935-6.54l5.081.877a16.565,16.565,0,0,1,1.209,5.663Zm3.544-6.976-4.87-.84A16.422,16.422,0,0,0,23.107,2.04a16.754,16.754,0,0,1,9.609,8.255ZM12.626,2.04A16.422,16.422,0,0,0,7.887,9.454l-4.87.84A16.754,16.754,0,0,1,12.626,2.04Zm-9.609,23.4,4.87.84a16.422,16.422,0,0,0,4.738,7.415,16.754,16.754,0,0,1-9.609-8.255Zm20.09,8.255a16.422,16.422,0,0,0,4.738-7.415l4.87-.84a16.754,16.754,0,0,1-9.609,8.255Zm0,0" fill="#007ba7"/>
</svg>
