<svg xmlns="http://www.w3.org/2000/svg" width="18.976" height="17.103" viewBox="0 0 18.976 17.103">
  <g id="wishlist-empty" transform="translate(0.499 0.502)">
    <path id="Path_3141" data-name="Path 3141" d="M631.778,1183.621c.153-.142.307-.268.442-.412a6.117,6.117,0,0,1,1.543-1.256,4.683,4.683,0,0,1,3.929-.37,4.378,4.378,0,0,1,2.191,1.76,5,5,0,0,1,.889,3.247,6.762,6.762,0,0,1-.687,2.43,13.113,13.113,0,0,1-1.986,2.93,28.02,28.02,0,0,1-3.865,3.625c-.774.609-1.568,1.193-2.353,1.788-.049.037-.085.058-.147.012a46.343,46.343,0,0,1-4.389-3.529,20.541,20.541,0,0,1-2.857-3.184,9.548,9.548,0,0,1-1.44-2.864,5.1,5.1,0,0,1,.055-3.249,4.872,4.872,0,0,1,2.108-2.636,4.442,4.442,0,0,1,3.765-.34,5.214,5.214,0,0,1,2.117,1.341C631.327,1183.152,631.557,1183.393,631.778,1183.621Z" transform="translate(-622.811 -1181.309)" fill="none" stroke="#007ba7" stroke-width="1"/>
  </g>
</svg>
