<svg id="work-icon" xmlns="http://www.w3.org/2000/svg" width="60" height="60" viewBox="0 0 60 60">
  <rect id="work-icon-2" data-name="work-icon" width="60" height="60" rx="4" fill="#007ba7"/>
  <path id="portfolio" d="M36.971,4.463H26.849V3.347A3.351,3.351,0,0,0,23.5,0H14.578a3.351,3.351,0,0,0-3.347,3.347V4.462H1.116A1.118,1.118,0,0,0,0,5.578V30.121a3.351,3.351,0,0,0,3.347,3.347H34.733a3.351,3.351,0,0,0,3.347-3.347V5.6a1.083,1.083,0,0,0-1.109-1.134ZM13.462,3.347a1.117,1.117,0,0,1,1.116-1.116H23.5a1.117,1.117,0,0,1,1.116,1.116V4.462H13.462ZM35.416,6.694,31.952,17.087a1.114,1.114,0,0,1-1.058.763H24.618V16.734A1.116,1.116,0,0,0,23.5,15.619H14.578a1.116,1.116,0,0,0-1.116,1.116V17.85H7.186a1.114,1.114,0,0,1-1.058-.763L2.664,6.694ZM22.387,17.85v2.231H15.693V17.85ZM35.849,30.121a1.117,1.117,0,0,1-1.116,1.116H3.347a1.117,1.117,0,0,1-1.116-1.116V12.453l1.78,5.34a3.342,3.342,0,0,0,3.175,2.288h6.276V21.2a1.116,1.116,0,0,0,1.116,1.116H23.5A1.116,1.116,0,0,0,24.618,21.2V20.081h6.276a3.342,3.342,0,0,0,3.175-2.288l1.78-5.34Zm0,0" transform="translate(11 13)" fill="#fff"/>
</svg>
