  <svg xmlns="http://www.w3.org/2000/svg" width="27.499" height="19.334" viewBox="0 0 27.499 19.334">
                                            <path id="youtube-play" d="M10.909,13.428l7.427-3.836L10.909,5.71v7.718ZM13.748.2q2.578,0,4.979.069t3.521.146l1.121.061L23.631.5a3.406,3.406,0,0,1,.353.046q.107.023.361.069a2.109,2.109,0,0,1,.438.123q.184.077.43.2a2.875,2.875,0,0,1,.476.3,3.778,3.778,0,0,1,.445.406,2.887,2.887,0,0,1,.238.284,5.224,5.224,0,0,1,.445.9,5.787,5.787,0,0,1,.406,1.55q.123.982.192,2.094T27.5,8.211v2.7a32.472,32.472,0,0,1-.277,4.45,6.145,6.145,0,0,1-.383,1.527,3.871,3.871,0,0,1-.491.943l-.215.261a3.617,3.617,0,0,1-.445.406,2.617,2.617,0,0,1-.476.292q-.245.115-.43.192a2.193,2.193,0,0,1-.438.123l-.368.069q-.115.022-.353.046t-.253.023q-3.851.292-9.621.292-3.176-.031-5.516-.1T5.156,19.32L4.4,19.259,3.852,19.2a7.185,7.185,0,0,1-.836-.154,4.758,4.758,0,0,1-.783-.322,3.056,3.056,0,0,1-.867-.629,2.887,2.887,0,0,1-.238-.284,5.224,5.224,0,0,1-.445-.9,5.786,5.786,0,0,1-.406-1.55q-.123-.982-.192-2.094T0,11.525v-2.7a32.471,32.471,0,0,1,.277-4.45A6.145,6.145,0,0,1,.66,2.848,3.871,3.871,0,0,1,1.151,1.9l.215-.261a3.617,3.617,0,0,1,.445-.406,3.006,3.006,0,0,1,.475-.3q.244-.123.43-.2A2.212,2.212,0,0,1,3.154.615L3.514.546Q3.623.524,3.867.5T4.128.478Q7.979.2,13.749.2Z" transform="translate(0.001 -0.201)" fill="#007ba7"/>
                                          </svg>